<svg width="16" height="17" viewBox="0 0 16 17" fill="none" xmlns="http://www.w3.org/2000/svg">
<path d="M11.9997 5.27338C11.9597 5.26671 11.9131 5.26671 11.8731 5.27338C10.9531 5.24004 10.2197 4.48671 10.2197 3.55338C10.2197 2.60004 10.9864 1.83337 11.9397 1.83337C12.8931 1.83337 13.6597 2.60671 13.6597 3.55338C13.6531 4.48671 12.9197 5.24004 11.9997 5.27338Z" stroke="#7F7F7F" stroke-width="1.3" stroke-linecap="round" stroke-linejoin="round"/>
<path d="M11.313 10.1267C12.2263 10.28 13.233 10.12 13.9396 9.64669C14.8796 9.02003 14.8796 7.99336 13.9396 7.36669C13.2263 6.89336 12.2063 6.73336 11.293 6.89336" stroke="#7F7F7F" stroke-width="1.3" stroke-linecap="round" stroke-linejoin="round"/>
<path d="M3.98031 5.27338C4.02031 5.26671 4.06698 5.26671 4.10698 5.27338C5.02698 5.24004 5.76031 4.48671 5.76031 3.55338C5.76031 2.60004 4.99365 1.83337 4.04031 1.83337C3.08698 1.83337 2.32031 2.60671 2.32031 3.55338C2.32698 4.48671 3.06031 5.24004 3.98031 5.27338Z" stroke="#7F7F7F" stroke-width="1.3" stroke-linecap="round" stroke-linejoin="round"/>
<path d="M4.66663 10.1267C3.75329 10.28 2.74663 10.12 2.03996 9.64669C1.09996 9.02003 1.09996 7.99336 2.03996 7.36669C2.75329 6.89336 3.77329 6.73336 4.68663 6.89336" stroke="#7F7F7F" stroke-width="1.3" stroke-linecap="round" stroke-linejoin="round"/>
<path d="M8.0007 10.2534C7.9607 10.2467 7.91404 10.2467 7.87404 10.2534C6.95404 10.22 6.2207 9.46669 6.2207 8.53336C6.2207 7.58002 6.98737 6.81335 7.9407 6.81335C8.89403 6.81335 9.6607 7.58669 9.6607 8.53336C9.65404 9.46669 8.9207 10.2267 8.0007 10.2534Z" stroke="#7F7F7F" stroke-width="1.3" stroke-linecap="round" stroke-linejoin="round"/>
<path d="M6.06047 12.3534C5.12047 12.98 5.12047 14.0067 6.06047 14.6334C7.12714 15.3467 8.8738 15.3467 9.94047 14.6334C10.8805 14.0067 10.8805 12.98 9.94047 12.3534C8.88047 11.6467 7.12714 11.6467 6.06047 12.3534Z" stroke="#7F7F7F" stroke-width="1.3" stroke-linecap="round" stroke-linejoin="round"/>
</svg>
