<svg width="32" height="23" viewBox="0 0 32 23" fill="none" xmlns="http://www.w3.org/2000/svg">
<path d="M28.8499 22.5859H15.8699C14.2899 22.5859 12.9999 21.2959 12.9999 19.7159C12.9999 15.7859 16.1999 12.5859 20.1299 12.5859H24.5799C28.5099 12.5859 31.7099 15.7859 31.7099 19.7159C31.7099 21.2959 30.4199 22.5859 28.8399 22.5859H28.8499ZM20.1399 13.8759C16.9199 13.8759 14.2899 16.4959 14.2899 19.7259C14.2899 20.6059 14.9999 21.3159 15.8799 21.3159H28.8599C29.7399 21.3159 30.4499 20.6059 30.4499 19.7259C30.4499 16.5059 27.8299 13.8759 24.5999 13.8759H20.1499H20.1399Z" fill="white"/>
<path d="M22.4499 11.1794H22.2799C19.6899 11.1794 17.5799 9.06937 17.5799 6.47937V5.05937C17.5799 2.46937 19.6899 0.359375 22.2799 0.359375H22.4499C25.0399 0.359375 27.1499 2.46937 27.1499 5.05937V6.47937C27.1499 9.06937 25.0399 11.1794 22.4499 11.1794ZM22.2799 1.63937C20.3899 1.63937 18.8599 3.17937 18.8599 5.05937V6.47937C18.8599 8.36937 20.3999 9.89937 22.2799 9.89937H22.4499C24.3399 9.89937 25.8699 8.35937 25.8699 6.47937V5.05937C25.8699 3.16937 24.3299 1.63937 22.4499 1.63937H22.2799Z" fill="white"/>
<path d="M15.9899 22.5859H3.00989C1.42989 22.5859 0.139893 21.2959 0.139893 19.7159C0.139893 15.7859 3.3399 12.5859 7.2699 12.5859H11.7198C12.4398 12.5859 13.1499 12.6959 13.8299 12.9059C16.8299 13.8359 18.8399 16.5759 18.8399 19.7159C18.8399 21.2959 17.5498 22.5859 15.9698 22.5859H15.9899ZM7.27991 13.8759C4.05991 13.8759 1.42987 16.4959 1.42987 19.7259C1.42987 20.6059 2.1399 21.3159 3.0199 21.3159H15.9999C16.8799 21.3159 17.5899 20.6059 17.5899 19.7259C17.5899 17.1459 15.9399 14.9059 13.4799 14.1359C12.9199 13.9659 12.3399 13.8759 11.7499 13.8759H7.29987H7.27991Z" fill="white"/>
<path d="M9.5899 11.1794H9.41986C6.82986 11.1794 4.71985 9.06937 4.71985 6.47937V5.05937C4.71985 2.46937 6.82986 0.359375 9.41986 0.359375H9.5899C12.1799 0.359375 14.2899 2.46937 14.2899 5.05937V6.47937C14.2899 9.06937 12.1799 11.1794 9.5899 11.1794ZM9.41986 1.63937C7.52986 1.63937 5.99988 3.17937 5.99988 5.05937V6.47937C5.99988 8.36937 7.53986 9.89937 9.41986 9.89937H9.5899C11.4799 9.89937 13.0099 8.35937 13.0099 6.47937V5.05937C13.0099 3.16937 11.4699 1.63937 9.5899 1.63937H9.41986Z" fill="white"/>
</svg>
