<svg width="18" height="20" viewBox="0 0 18 20" fill="none" xmlns="http://www.w3.org/2000/svg">
<path d="M14.0015 6.66673C15.3823 6.66673 16.5016 5.54742 16.5016 4.16668C16.5016 2.78594 15.3823 1.66663 14.0015 1.66663C12.6208 1.66663 11.5015 2.78594 11.5015 4.16668C11.5015 5.54742 12.6208 6.66673 14.0015 6.66673Z" stroke="#FF5D2D" stroke-width="1.5" stroke-linecap="round" stroke-linejoin="round"/>
<path d="M4.00005 12.5001C5.3808 12.5001 6.50011 11.3808 6.50011 10.0001C6.50011 8.61931 5.3808 7.5 4.00005 7.5C2.61931 7.5 1.5 8.61931 1.5 10.0001C1.5 11.3808 2.61931 12.5001 4.00005 12.5001Z" stroke="#FF5D2D" stroke-width="1.5" stroke-linecap="round" stroke-linejoin="round"/>
<path d="M14.0015 18.3334C15.3823 18.3334 16.5016 17.214 16.5016 15.8333C16.5016 14.4526 15.3823 13.3333 14.0015 13.3333C12.6208 13.3333 11.5015 14.4526 11.5015 15.8333C11.5015 17.214 12.6208 18.3334 14.0015 18.3334Z" stroke="#FF5D2D" stroke-width="1.5" stroke-linecap="round" stroke-linejoin="round"/>
<path d="M6.1582 11.2581L11.85 14.5748" stroke="#FF5D2D" stroke-width="1.5" stroke-linecap="round" stroke-linejoin="round"/>
<path d="M11.8417 5.42468L6.1582 8.74142" stroke="#FF5D2D" stroke-width="1.5" stroke-linecap="round" stroke-linejoin="round"/>
</svg>
