<svg width="61" height="61" viewBox="0 0 61 61" fill="none"
    xmlns="http://www.w3.org/2000/svg">
    <path d="M49.7998 1.1725V1.7825C49.7998 2.1225 50.0698 2.3925 50.4098 2.3925H58.6998V10.6825C58.6998 11.0225 58.9698 11.2925 59.3098 11.2925H59.9198C60.2598 11.2925 60.5298 11.0225 60.5298 10.6825V0.5625H50.4098C50.0698 0.5625 49.7998 0.832501 49.7998 1.1725Z" fill="white"/>
    <path d="M1.13978 11.2925H1.74978C2.08978 11.2925 2.35979 11.0225 2.35979 10.6825V2.3925H10.6498C10.9898 2.3925 11.2598 2.1225 11.2598 1.7825V1.1725C11.2598 0.832501 10.9898 0.5625 10.6498 0.5625H0.529785V10.6825C0.529785 11.0225 0.799784 11.2925 1.13978 11.2925Z" fill="white"/>
    <path d="M11.2598 59.8622V59.2522C11.2598 58.9122 10.9898 58.6422 10.6498 58.6422H2.35979V50.3522C2.35979 50.0122 2.08978 49.7422 1.74978 49.7422H1.13978C0.799784 49.7422 0.529785 50.0122 0.529785 50.3522V60.4722H10.6498C10.9898 60.4722 11.2598 60.2022 11.2598 59.8622Z" fill="white"/>
    <path d="M59.9198 49.7422H59.3098C58.9698 49.7422 58.6998 50.0122 58.6998 50.3522V58.6422H50.4098C50.0698 58.6422 49.7998 58.9122 49.7998 59.2522V59.8622C49.7998 60.2022 50.0698 60.4722 50.4098 60.4722H60.5298V50.3522C60.5298 50.0122 60.2598 49.7422 59.9198 49.7422Z" fill="white"/>
    <path d="M26.0998 52.3317C19.3398 52.1317 14.0498 46.4017 14.0498 39.6417V18.6317C14.0498 18.4817 14.1098 18.3317 14.2098 18.2217L22.8298 8.88174C23.2098 8.47174 23.8898 8.74174 23.8898 9.29174V30.9817C23.8898 36.8117 28.4898 41.7417 34.3198 41.8417C35.2298 41.8517 36.1098 41.7617 36.9498 41.5517C37.0298 41.0217 37.0698 40.4817 37.0698 39.9317V19.3617C37.0698 19.0217 37.3398 18.7517 37.6798 18.7517H38.2698C38.6098 18.7517 38.8798 19.0217 38.8798 19.3617V39.9317C38.8798 40.2617 38.8698 40.5817 38.8398 40.9117C42.5198 39.2517 45.0898 35.5417 45.0898 31.2417V10.6717C45.0898 10.3317 45.3598 10.0617 45.6998 10.0617H46.2898C46.6298 10.0617 46.8998 10.3317 46.8998 10.6717V31.2417C46.8998 36.6817 43.3798 41.3217 38.4898 42.9917C37.0898 48.4817 32.0298 52.5217 26.0798 52.3417L26.0998 52.3317ZM15.8698 19.0917V39.9117C15.8698 45.7617 20.6298 50.5217 26.4798 50.5217C31.0798 50.5217 34.9998 47.5817 36.4698 43.4817C35.8298 43.5817 35.1698 43.6417 34.5098 43.6417C27.6598 43.6417 22.0898 38.0717 22.0898 31.2217V12.3617L15.8798 19.0917H15.8698Z" fill="white"/>
</svg>
