<svg width="29" height="29" viewBox="0 0 29 29" fill="none" xmlns="http://www.w3.org/2000/svg">
<path d="M2.67969 16.5586V20.2186C2.67969 23.6586 5.46968 26.4586 8.91968 26.4586H12.7897" stroke="#071C25" stroke-width="1.01" stroke-linecap="round" stroke-linejoin="round"/>
<path d="M12.7897 2.76953H8.91968C5.47968 2.76953 2.67969 5.55955 2.67969 9.00955V12.7695" stroke="#071C25" stroke-width="1.01" stroke-linecap="round" stroke-linejoin="round"/>
<path d="M26.3698 12.7812V9.02124C26.3698 5.58124 23.5798 2.78125 20.1298 2.78125H16.2598" stroke="#071C25" stroke-width="1.01" stroke-linecap="round" stroke-linejoin="round"/>
<path d="M16.2598 26.4606H20.1298C23.5798 26.4606 26.3698 23.6706 26.3698 20.2206V16.8906" stroke="#071C25" stroke-width="1.01" stroke-linecap="round" stroke-linejoin="round"/>
<path d="M16.26 4.44016V0.910156H12.79V4.44016" stroke="#071C25" stroke-width="1.01" stroke-linecap="round" stroke-linejoin="round"/>
<path d="M12.79 24.8203V28.3303H16.26V24.8203" stroke="#071C25" stroke-width="1.01" stroke-linecap="round" stroke-linejoin="round"/>
<path d="M24.75 16.3506H28.23V12.8906H24.75" stroke="#071C25" stroke-width="1.01" stroke-linecap="round" stroke-linejoin="round"/>
<path d="M3.84985 12.8906H0.819824V16.3506H3.84985" stroke="#071C25" stroke-width="1.01" stroke-linecap="round" stroke-linejoin="round"/>
<path d="M14.5298 19.6786C17.3243 19.6786 19.5897 17.4132 19.5897 14.6186C19.5897 11.824 17.3243 9.55859 14.5298 9.55859C11.7352 9.55859 9.46973 11.824 9.46973 14.6186C9.46973 17.4132 11.7352 19.6786 14.5298 19.6786Z" stroke="#071C25" stroke-width="1.01" stroke-linecap="round" stroke-linejoin="round"/>
<path d="M14.5298 24.8916C20.2017 24.8916 24.7998 20.2935 24.7998 14.6216C24.7998 8.94959 20.2017 4.35156 14.5298 4.35156C8.85782 4.35156 4.25977 8.94959 4.25977 14.6216C4.25977 20.2935 8.85782 24.8916 14.5298 24.8916Z" stroke="#071C25" stroke-width="1.01" stroke-linecap="round" stroke-linejoin="round"/>
<path d="M11.8799 4.69141L13.1998 9.47141" stroke="#071C25" stroke-width="1.01" stroke-linecap="round" stroke-linejoin="round"/>
<path d="M17.1697 4.69141L15.8496 9.67142" stroke="#071C25" stroke-width="1.01" stroke-linecap="round" stroke-linejoin="round"/>
<path d="M17.1697 24.5495L15.8496 19.7695" stroke="#071C25" stroke-width="1.01" stroke-linecap="round" stroke-linejoin="round"/>
<path d="M11.8799 24.5503L13.1998 19.5703" stroke="#071C25" stroke-width="1.01" stroke-linecap="round" stroke-linejoin="round"/>
<path d="M24.4596 11.9805L19.8296 13.2505" stroke="#071C25" stroke-width="1.01" stroke-linecap="round" stroke-linejoin="round"/>
<path d="M24.4597 17.2592L19.4697 15.9492" stroke="#071C25" stroke-width="1.01" stroke-linecap="round" stroke-linejoin="round"/>
<path d="M4.58984 17.2619L9.46985 15.9219" stroke="#071C25" stroke-width="1.01" stroke-linecap="round" stroke-linejoin="round"/>
<path d="M4.58984 11.9805L9.57983 13.2905" stroke="#071C25" stroke-width="1.01" stroke-linecap="round" stroke-linejoin="round"/>
</svg>
