<svg width="21" height="20" viewBox="0 0 21 20" fill="none" xmlns="http://www.w3.org/2000/svg">
<path d="M18.18 0.421875H7.02002V1.12189H18.18V0.421875Z" fill="#46555C"/>
<path d="M18.18 19.0703H7.02002V19.7703H18.18V19.0703Z" fill="#46555C"/>
<path d="M17.64 3.99078L18.13 3.50079L16.18 1.55078L14.24 3.50079L14.73 3.99078L15.83 2.89081V17.3008L14.73 16.2008L14.24 16.7008L16.18 18.6408L18.13 16.7008L17.64 16.2008L16.53 17.3008V2.89081L17.64 3.99078Z" fill="#46555C"/>
<path d="M0.969971 19.7719H6.32001V0.421875H0.969971V19.7719ZM1.66998 2.42188L2.96997 1.12189H4.45001L1.66998 3.90192V2.42188ZM1.66998 6.3819L5.62 2.43188V3.91187L1.66998 7.86188V6.3819ZM5.62 17.7719L4.32001 19.0719H2.84003L5.62 16.2919V17.7719ZM1.66998 8.36188L5.62 4.41187V5.89191L1.66998 9.84192V8.36188ZM1.66998 10.3419L5.62 6.39191V7.87189L1.66998 11.8219V10.3419ZM1.66998 12.3219L5.62 8.37189V9.85187L1.66998 13.8019V12.3219ZM1.66998 14.3019L5.62 10.3519V11.8319L1.66998 15.7819V14.3019ZM1.66998 16.2819L5.62 12.3319V13.8119L1.66998 17.7619V16.2819ZM1.66998 18.2619L5.62 14.3119V15.7919L2.34003 19.0719H1.65997V18.2619H1.66998ZM4.82001 19.0719L5.62 18.2719V19.0719H4.82001ZM5.62 1.93188L1.66998 5.8819V4.40192L4.95001 1.12189H5.63V1.93188H5.62ZM2.46997 1.12189L1.66998 1.92188V1.12189H2.46997Z" fill="#46555C"/>
<path d="M20.92 11.3731C20.92 11.3731 20.97 11.4431 20.97 11.4831V11.8931C20.97 11.8931 20.95 11.9731 20.92 12.0031C20.89 12.0331 20.85 12.0531 20.81 12.0531H18.25C18.25 12.0531 18.17 12.0331 18.14 12.0031C18.11 11.9731 18.09 11.9331 18.09 11.8931V8.1131C18.09 8.1131 18.11 8.03311 18.14 8.00311C18.17 7.97311 18.21 7.95312 18.25 7.95312H18.72C18.72 7.95312 18.8 7.97311 18.83 8.00311C18.86 8.03311 18.88 8.0731 18.88 8.1131V11.3131H20.81C20.81 11.3131 20.89 11.3331 20.92 11.3631V11.3731Z" fill="#46555C"/>
</svg>
