<svg width="24" height="29" viewBox="0 0 24 29" fill="none" xmlns="http://www.w3.org/2000/svg">
<path d="M9.24019 16.793H14.7602C19.2002 16.793 22.8102 20.403 22.8102 24.843C22.8102 26.363 21.5702 27.603 20.0502 27.603H3.95019C2.43019 27.603 1.19019 26.363 1.19019 24.843C1.19019 20.403 4.80019 16.793 9.24019 16.793Z" stroke="white" stroke-width="2" stroke-linecap="round" stroke-linejoin="round"/>
<path d="M12.1101 1.60156H11.8901C9.10658 1.60156 6.8501 3.85806 6.8501 6.64157V8.40155C6.8501 11.1851 9.10658 13.4416 11.8901 13.4416H12.1101C14.8936 13.4416 17.1501 11.1851 17.1501 8.40155V6.64157C17.1501 3.85806 14.8936 1.60156 12.1101 1.60156Z" stroke="white" stroke-width="2" stroke-linecap="round" stroke-linejoin="round"/>
</svg>
