<svg width="14" height="15" viewBox="0 0 14 15" fill="none" xmlns="http://www.w3.org/2000/svg">
<path d="M9.0697 9.0903C11.2844 9.0903 13.0797 7.29497 13.0797 5.08031C13.0797 2.86565 11.2844 1.07031 9.0697 1.07031C6.85504 1.07031 5.05981 2.86565 5.05981 5.08031C5.05981 7.29497 6.85504 9.0903 9.0697 9.0903Z" stroke="#001C26" stroke-miterlimit="10"/>
<path d="M5.16992 8.98187L6.23987 7.92188" stroke="#001C26" stroke-miterlimit="10"/>
<path d="M5.15861 10.6628C5.62724 10.1942 5.62727 9.4344 5.15864 8.96577C4.69001 8.49714 3.93016 8.49708 3.46153 8.96571L0.958379 11.4689C0.48975 11.9375 0.489804 12.6973 0.958433 13.166C1.42706 13.6346 2.18682 13.6346 2.65545 13.1659L5.15861 10.6628Z" stroke="#001C26" stroke-miterlimit="10"/>
</svg>
