<svg width="15" height="11" viewBox="0 0 15 11" fill="none" xmlns="http://www.w3.org/2000/svg">
    <path d="M5.18005 5.33063C3.96005 5.33063 2.95996 4.33063 2.95996 3.11063C2.95996 1.89063 3.96005 0.890625 5.18005 0.890625C6.40005 0.890625 7.40002 1.88063 7.40002 3.11063C7.40002 4.34063 6.41005 5.33063 5.18005 5.33063ZM5.18005 1.89062C4.51005 1.89062 3.95996 2.44063 3.95996 3.11063C3.95996 3.78063 4.51005 4.33063 5.18005 4.33063C5.85005 4.33063 6.40002 3.78063 6.40002 3.11063C6.40002 2.44063 5.85005 1.89062 5.18005 1.89062Z" fill="#001C26"/>
    <path d="M3.45996 2.61719H0.680054V3.61719H3.45996V2.61719Z" fill="#001C26"/>
    <path d="M14.13 2.61719H7.19995V3.61719H14.13V2.61719Z" fill="#001C26"/>
    <path d="M9.62 10.2525C8.4 10.2525 7.40002 9.2525 7.40002 8.0325C7.40002 6.8125 8.39 5.8125 9.62 5.8125C10.85 5.8125 11.84 6.8025 11.84 8.0325C11.84 9.2625 10.84 10.2525 9.62 10.2525ZM9.62 6.8125C8.95 6.8125 8.40002 7.3625 8.40002 8.0325C8.40002 8.7025 8.95 9.2525 9.62 9.2525C10.29 9.2525 10.84 8.7025 10.84 8.0325C10.84 7.3625 10.29 6.8125 9.62 6.8125Z" fill="#001C26"/>
    <path d="M14.12 7.53125H11.34V8.53125H14.12V7.53125Z" fill="#001C26"/>
    <path d="M7.60999 7.53125H0.680054V8.53125H7.60999V7.53125Z" fill="#001C26"/>
</svg>
