<svg width="21" height="19" viewBox="0 0 21 19" fill="none" xmlns="http://www.w3.org/2000/svg">
<path d="M20.57 6.92188H19.85V18.4619H20.57V6.92188Z" fill="#46555C"/>
<path d="M1.29999 6.92188H0.580017V18.4619H1.29999V6.92188Z" fill="#46555C"/>
<path d="M3.75 14.3789L1.73999 16.3889L3.75 18.3989L4.26001 17.8889L3.12 16.7489H18.03L16.89 17.8889L17.4 18.3989L19.41 16.3889L17.4 14.3789L16.89 14.8889L18.03 16.0289H12.35H8.79999H3.12L4.26001 14.8889L3.75 14.3789Z" fill="#46555C"/>
<path d="M0.580017 6.2002H20.58V0.660156H0.580017V6.2002ZM1.29999 2.73016L2.64001 1.3902H4.16998L1.28998 4.2702V2.74017L1.29999 2.73016ZM1.29999 4.78021L4.69 1.3902H6.22998L2.14001 5.48016H1.29999V4.78021ZM12.37 5.48016H10.84L14.93 1.3902H16.46L12.37 5.48016ZM16.97 1.3902H18.51L14.42 5.48016H12.89L16.98 1.3902H16.97ZM10.32 5.48016H8.78003L12.87 1.3902H14.41L10.32 5.48016ZM8.27002 5.48016H6.73999L10.83 1.3902H12.36L8.27002 5.48016ZM6.21997 5.48016H4.69L8.78003 1.3902H10.32L6.22998 5.48016H6.21997ZM4.16998 5.48016H2.63L6.71997 1.3902H8.25L4.15997 5.48016H4.16998ZM19.84 4.1402L18.5 5.48016H16.96L19.84 2.60016V4.1402ZM19.01 5.48016L19.84 4.65021V5.48016H19.01ZM19.84 2.09021L16.45 5.48016H14.92L19.01 1.3902H19.85V2.09021H19.84ZM2.12 1.3902L1.28998 2.22015V1.3902H2.12Z" fill="#46555C"/>
<path d="M10.17 14.4597C10.15 14.5297 10.12 14.5797 10.09 14.6097C10.06 14.6397 10.01 14.6597 9.96002 14.6597H9.46997C9.35997 14.6597 9.29001 14.5897 9.26001 14.4497L8.48999 10.6397V10.5897C8.48999 10.5897 8.49003 10.5097 8.53003 10.4797C8.56003 10.4497 8.60001 10.4297 8.64001 10.4297H9.09003C9.09003 10.4297 9.17002 10.4397 9.21002 10.4697C9.24002 10.4997 9.27003 10.5397 9.28003 10.5897L9.78998 13.1497L10.24 11.5397C10.24 11.5397 10.27 11.4597 10.3 11.4197C10.33 11.3797 10.38 11.3597 10.45 11.3597H10.95C11.01 11.3597 11.06 11.3797 11.1 11.4197C11.13 11.4597 11.16 11.4997 11.16 11.5397L11.61 13.1497L12.12 10.5897C12.13 10.5297 12.16 10.4897 12.19 10.4697C12.22 10.4397 12.26 10.4297 12.31 10.4297H12.76C12.76 10.4297 12.84 10.4497 12.88 10.4797C12.91 10.5097 12.93 10.5497 12.93 10.5897V10.6397L12.15 14.4497C12.12 14.5897 12.05 14.6597 11.94 14.6597H11.45C11.39 14.6597 11.35 14.6397 11.32 14.6097C11.29 14.5797 11.26 14.5197 11.24 14.4597L10.72 12.6497L10.2 14.4597H10.17Z" fill="#46555C"/>
</svg>
