<svg width="19" height="19" viewBox="0 0 19 19" fill="none" xmlns="http://www.w3.org/2000/svg">
<path d="M12.95 9.78764C13.1 10.3076 13.1899 10.8677 13.1899 11.4377C13.1899 14.6677 10.57 17.2776 7.34998 17.2776C4.12998 17.2776 1.51001 14.6577 1.51001 11.4377C1.51001 8.21765 4.12998 5.59766 7.34998 5.59766C7.98998 5.59766 8.60994 5.69765 9.18994 5.88765" stroke="#EFEAE4" stroke-width="1.5" stroke-linecap="round" stroke-linejoin="round"/>
<path d="M7.31995 3.34953C8.36995 1.79953 10.15 0.769531 12.17 0.769531C15.4 0.769531 18.01 3.38953 18.01 6.60953C18.01 8.56953 17.0499 10.2995 15.5699 11.3595" stroke="#EFEAE4" stroke-width="1.5" stroke-linecap="round" stroke-linejoin="round"/>
<path d="M9.32996 11.3806H7.33997V9.39062" stroke="#EFEAE4" stroke-width="1.5" stroke-linecap="round" stroke-linejoin="round"/>
<path d="M11.88 4.85938H13.87V6.84938" stroke="#EFEAE4" stroke-width="1.5" stroke-linecap="round" stroke-linejoin="round"/>
<path d="M7.57996 11.1413L13.6899 5.03125" stroke="#EFEAE4" stroke-width="1.5" stroke-linecap="round" stroke-linejoin="round"/>
</svg>
