<svg width="21" height="20" viewBox="0 0 21 20" fill="none" xmlns="http://www.w3.org/2000/svg">
<path d="M10.5002 7.49996V1.66663L8.8335 3.33329" stroke="#FF5D2D" stroke-width="1.5" stroke-linecap="round" stroke-linejoin="round"/>
<path d="M10.5 1.66663L12.1667 3.33329" stroke="#FF5D2D" stroke-width="1.5" stroke-linecap="round" stroke-linejoin="round"/>
<path d="M2.1499 10.8334H5.8249C6.14157 10.8334 6.4249 11.0084 6.56657 11.2917L7.54157 13.2417C7.8249 13.8084 8.3999 14.1667 9.03324 14.1667H11.9749C12.6082 14.1667 13.1832 13.8084 13.4666 13.2417L14.4416 11.2917C14.5832 11.0084 14.8749 10.8334 15.1832 10.8334H18.8166" stroke="#FF5D2D" stroke-width="1.5" stroke-linecap="round" stroke-linejoin="round"/>
<path d="M6.33317 4.27502C3.38317 4.70836 2.1665 6.44169 2.1665 10V12.5C2.1665 16.6667 3.83317 18.3334 7.99984 18.3334H12.9998C17.1665 18.3334 18.8332 16.6667 18.8332 12.5V10C18.8332 6.44169 17.6165 4.70836 14.6665 4.27502" stroke="#FF5D2D" stroke-width="1.5" stroke-linecap="round" stroke-linejoin="round"/>
</svg>
