<svg width="16" height="16" viewBox="0 0 16 16" fill="none" xmlns="http://www.w3.org/2000/svg">
<path d="M8.00016 1.3335C4.32683 1.3335 1.3335 4.32683 1.3335 8.00016C1.3335 11.6735 4.32683 14.6668 8.00016 14.6668C11.6735 14.6668 14.6668 11.6735 14.6668 8.00016C14.6668 4.32683 11.6735 1.3335 8.00016 1.3335ZM11.1868 6.46683L7.40683 10.2468C7.3135 10.3402 7.18683 10.3935 7.0535 10.3935C6.92016 10.3935 6.7935 10.3402 6.70016 10.2468L4.8135 8.36016C4.62016 8.16683 4.62016 7.84683 4.8135 7.6535C5.00683 7.46016 5.32683 7.46016 5.52016 7.6535L7.0535 9.18683L10.4802 5.76016C10.6735 5.56683 10.9935 5.56683 11.1868 5.76016C11.3802 5.9535 11.3802 6.26683 11.1868 6.46683Z" fill="#B0B0B0"/>
</svg>
