<?xml version="1.0" standalone="no"?>
<!DOCTYPE svg PUBLIC "-//W3C//DTD SVG 20010904//EN"
 "http://www.w3.org/TR/2001/REC-SVG-20010904/DTD/svg10.dtd">
<svg version="1.0" xmlns="http://www.w3.org/2000/svg"
 width="256.000000pt" height="256.000000pt" viewBox="0 0 256.000000 256.000000"
 preserveAspectRatio="xMidYMid meet">

<g transform="translate(0.000000,256.000000) scale(0.100000,-0.100000)"
fill="#000000" stroke="none">
<path d="M1320 2547 c-23 -7 -76 -51 -153 -126 l-117 -115 -44 43 c-75 74
-139 72 -227 -7 -77 -69 -109 -117 -109 -164 0 -48 12 -72 58 -120 l36 -38
-106 -107 c-125 -128 -142 -156 -143 -238 0 -47 6 -69 27 -105 40 -68 415
-435 469 -459 53 -25 116 -27 167 -6 21 9 85 64 149 128 l113 112 407 -406
c374 -372 412 -407 455 -419 165 -44 307 113 243 268 -11 25 -144 165 -418
439 l-402 403 112 112 c120 121 143 159 143 235 0 80 -26 115 -257 344 -178
176 -225 217 -259 227 -49 14 -96 14 -144 -1z m138 -91 c15 -8 118 -106 228
-218 215 -216 227 -234 205 -301 -8 -22 -124 -145 -374 -395 l-363 -362 -50 0
c-29 0 -60 7 -74 16 -37 24 -367 352 -401 398 -33 44 -38 99 -15 144 16 30
690 704 721 721 28 15 91 14 123 -3z m-505 -174 l37 -38 -83 -82 -84 -83 -36
40 c-20 23 -37 49 -37 58 0 23 122 143 146 143 11 0 37 -17 57 -38z m1517
-1566 c0 -41 -5 -53 -34 -82 -37 -37 -85 -45 -129 -23 -28 14 -797 780 -797
794 0 5 35 45 77 87 l78 78 402 -403 403 -403 0 -48z"/>
<path d="M446 1099 c-32 -13 -323 -179 -366 -209 -16 -11 -40 -43 -54 -72 -26
-51 -26 -56 -26 -262 0 -200 1 -214 24 -261 13 -27 32 -57 42 -66 10 -9 98
-62 195 -118 188 -107 232 -122 303 -103 21 6 111 52 200 103 263 150 256 138
256 444 0 308 10 291 -269 450 -143 82 -177 97 -222 100 -30 3 -67 0 -83 -6z
m278 -177 c95 -55 178 -109 190 -125 20 -27 21 -41 21 -242 0 -201 -1 -215
-21 -242 -12 -16 -96 -71 -190 -125 -222 -129 -201 -129 -430 3 -126 73 -179
109 -189 130 -22 41 -22 427 0 469 11 21 61 55 192 129 145 83 184 101 218
101 32 0 73 -19 209 -98z"/>
<path d="M429 891 c-30 -16 -92 -51 -139 -78 -115 -66 -120 -77 -120 -258 0
-191 -1 -190 165 -284 177 -101 177 -101 335 -12 69 39 137 85 153 101 l27 30
0 165 0 165 -27 30 c-40 43 -270 170 -309 170 -17 0 -55 -13 -85 -29z m195
-113 c50 -28 103 -60 119 -70 l27 -19 0 -133 c0 -114 -2 -135 -17 -148 -34
-28 -221 -128 -241 -128 -11 0 -72 30 -136 66 l-116 65 0 143 0 144 113 65
c61 36 123 65 136 66 13 1 65 -22 115 -51z"/>
</g>
</svg>
