<svg width="29" height="24" viewBox="0 0 29 24" fill="none" xmlns="http://www.w3.org/2000/svg">
<path d="M14.5 1.29297C7.58997 1.29297 1.96997 6.91298 1.96997 13.823C1.96997 17.133 3.23997 20.243 5.54997 22.593H23.45C25.76 20.233 27.03 17.133 27.03 13.823C27.03 6.91298 21.41 1.29297 14.5 1.29297Z" stroke="#ED4300" stroke-width="2" stroke-linecap="round" stroke-linejoin="round"/>
<path d="M14.4999 15.2917C13.5999 15.2917 12.8599 14.5517 12.8599 13.6517C12.8599 12.7517 13.5999 12.0117 14.4999 12.0117C15.3999 12.0117 16.1399 12.7517 16.1399 13.6517C16.1399 14.5517 15.3999 15.2917 14.4999 15.2917Z" stroke="#ED4300" stroke-width="2" stroke-linecap="round" stroke-linejoin="round"/>
<path d="M20.4199 7.74219L16.1399 12.0122" stroke="#ED4300" stroke-width="2" stroke-linecap="round" stroke-linejoin="round"/>
<path d="M6.31988 13.6523H6.12988" stroke="#ED4300" stroke-width="2" stroke-linecap="round" stroke-linejoin="round"/>
<path d="M22.8699 13.6523H22.6799" stroke="#ED4300" stroke-width="2" stroke-linecap="round" stroke-linejoin="round"/>
<path d="M14.5 5.29297V5.47298" stroke="#ED4300" stroke-width="2" stroke-linecap="round" stroke-linejoin="round"/>
<path d="M8.57983 7.74219L8.71983 7.87218" stroke="#ED4300" stroke-width="2" stroke-linecap="round" stroke-linejoin="round"/>
</svg>
