<svg width="112" height="93" viewBox="0 0 112 93" fill="none" xmlns="http://www.w3.org/2000/svg">
  <path
    d="M99.0199 43.4398V27.0298C99.0199 22.2698 95.1299 18.4197 90.3699 18.4697L10.8198 19.2798C6.05982 19.3298 2.16992 15.4797 2.16992 10.7197"
    stroke="white" stroke-width="4" stroke-linecap="round" stroke-linejoin="round" />
  <path
    d="M62.3701 78.45H10.7301C6.0001 78.45 2.16016 74.6199 2.16016 69.8799V10.7599C2.16016 6.02995 5.9901 2.18994 10.7301 2.18994H79.1802C83.9102 2.18994 87.7501 6.01995 87.7501 10.7599V18.4799"
    stroke="white" stroke-width="4" stroke-linecap="round" stroke-linejoin="round" />
  <path
    d="M84.0303 90.27C98.2516 90.27 109.78 78.7414 109.78 64.52C109.78 50.2987 98.2516 38.77 84.0303 38.77C69.8089 38.77 58.2803 50.2987 58.2803 64.52C58.2803 78.7414 69.8089 90.27 84.0303 90.27Z"
    stroke="white" stroke-width="4" stroke-linecap="round" stroke-linejoin="round" />
  <path d="M84.0303 51.6401V77.3901" stroke="white" stroke-width="4" stroke-linecap="round"
    stroke-linejoin="round" />
  <path d="M73.3105 62.3601L84.0305 51.6401L94.7505 62.3601" stroke="white" stroke-width="4"
    stroke-linecap="round" stroke-linejoin="round" />
  <path d="M87.7402 10.7598H13.4902" stroke="white" stroke-width="4" stroke-linecap="round"
    stroke-linejoin="round" />
</svg>
  