<?xml version="1.0" encoding="UTF-8" standalone="no"?>
<!-- Created with Inkscape (http://www.inkscape.org/) -->

<svg
   version="1.1"
   id="svg18"
   width="29.242664"
   height="37.32724"
   viewBox="0 0 29.242665 37.32724"
   xmlns="http://www.w3.org/2000/svg"
   xmlns:svg="http://www.w3.org/2000/svg">
  <defs
     id="defs22">
    <clipPath
       clipPathUnits="userSpaceOnUse"
       id="clipPath674">
      <path
         d="M 0,975 H 1366 V 0 H 0 Z"
         id="path672" />
    </clipPath>
  </defs>
  <g
     id="g26"
     transform="matrix(1.3333333,0,0,-1.3333333,-47.938265,798.55447)">
    <g
       id="g668"
       style="display:inline">
      <g
         id="g670"
         clip-path="url(#clipPath674)"
         style="display:inline">
        <g
           id="g676"
           transform="translate(46.5437,572.006)">
          <path
             d="m 0,0 c 0.239,-0.117 0.513,-0.117 0.751,0 1.815,0.889 9.591,4.977 9.591,9.772 v 11.141 c 0,0.382 -0.244,0.718 -0.604,0.833 -1.389,0.446 -4.995,1.719 -8.921,4.044 -0.272,0.161 -0.61,0.161 -0.883,0 -3.926,-2.325 -7.532,-3.598 -8.921,-4.044 -0.36,-0.115 -0.603,-0.451 -0.603,-0.833 V 9.772 C -9.59,4.977 -1.815,0.889 0,0 Z"
             style="fill:none;stroke:#ffffff;stroke-width:2;stroke-linecap:round;stroke-linejoin:round;stroke-miterlimit:10;stroke-dasharray:none;stroke-opacity:1"
             id="path678" />
        </g>
        <g
           id="g680"
           transform="translate(45.76,584.9175)">
          <path
             d="M 0,0 0.773,-0.773 2.319,0.773"
             style="fill:none;stroke:#ffffff;stroke-width:2;stroke-linecap:round;stroke-linejoin:round;stroke-miterlimit:10;stroke-dasharray:none;stroke-opacity:1"
             id="path682" />
        </g>
        <g
           id="g684"
           transform="translate(52.0298,584.9175)">
          <path
             d="m 0,0 c 0,-2.822 -2.288,-5.11 -5.11,-5.11 -2.823,0 -5.111,2.288 -5.111,5.11 0,2.822 2.288,5.11 5.111,5.11 C -2.288,5.11 0,2.822 0,0 Z"
             style="fill:none;stroke:#ffffff;stroke-width:2;stroke-linecap:round;stroke-linejoin:round;stroke-miterlimit:10;stroke-dasharray:none;stroke-opacity:1"
             id="path686" />
        </g>
      </g>
    </g>
  </g>
</svg>
