<svg width="49" height="48" viewBox="0 0 49 48" fill="none" xmlns="http://www.w3.org/2000/svg">
<path d="M31.4482 42.7549C35.8648 41.1189 39.5624 37.9768 41.8895 33.882C44.2166 29.7872 45.0239 25.0025 44.1692 20.3708C43.3145 15.7392 40.8527 11.5577 37.2174 8.56318" stroke="url(#paint0_linear_653_74285)" stroke-width="8"/>
<path d="M24.5 4C19.7902 4 15.2314 5.66218 11.6269 8.69371C8.02239 11.7252 5.60338 15.9316 4.79605 20.5718C3.98873 25.2119 4.84488 29.9881 7.21368 34.0589C9.58249 38.1297 13.312 41.234 17.745 42.8247C22.1781 44.4155 27.0304 44.3907 31.447 42.7547C35.8636 41.1188 39.5612 37.9766 41.8882 33.8818" stroke="#FF5D2D" stroke-width="8"/>
<defs>
<linearGradient id="paint0_linear_653_74285" x1="45.0781" y1="23.808" x2="34.8858" y2="9.96186" gradientUnits="userSpaceOnUse">
<stop stop-color="#FF5D2D"/>
<stop offset="1" stop-color="#FF5D2D" stop-opacity="0"/>
</linearGradient>
</defs>
</svg>
