<svg width="24" height="24" viewBox="0 0 24 24" fill="none" xmlns="http://www.w3.org/2000/svg">
<path d="M10.49 2.23006L5.5 4.10005C4.35 4.53005 3.41 5.89004 3.41 7.12004V14.55C3.41 15.73 4.19001 17.28 5.14001 17.99L9.44 21.2001C10.85 22.2601 13.17 22.2601 14.58 21.2001L18.88 17.99C19.83 17.28 20.61 15.73 20.61 14.55V7.12004C20.61 5.89004 19.67 4.53005 18.52 4.10005L13.53 2.23006C12.68 1.92006 11.32 1.92006 10.49 2.23006Z" stroke="#8A9FA7" stroke-width="1.5" stroke-linecap="round" stroke-linejoin="round"/>
<path d="M12 10.9199C11.96 10.9199 11.91 10.9199 11.87 10.9199C10.93 10.8899 10.18 10.1099 10.18 9.15991C10.18 8.18991 10.97 7.3999 11.94 7.3999C12.91 7.3999 13.7 8.18991 13.7 9.15991C13.69 10.1199 12.94 10.8899 12 10.9199Z" stroke="#8A9FA7" stroke-width="1.5" stroke-linecap="round" stroke-linejoin="round"/>
<path d="M10.01 13.7199C9.05001 14.3599 9.05001 15.4099 10.01 16.0498C11.1 16.7799 12.89 16.7799 13.98 16.0498C14.94 15.4099 14.94 14.3599 13.98 13.7199C12.9 12.9899 11.11 12.9899 10.01 13.7199Z" stroke="#8A9FA7" stroke-width="1.5" stroke-linecap="round" stroke-linejoin="round"/>
</svg>
