<svg width="26" height="24" viewBox="0 0 26 24" fill="none" xmlns="http://www.w3.org/2000/svg">
<path d="M17.7799 23.5875C16.3899 23.5875 15.2599 22.4575 15.2599 21.0675C15.2599 19.6775 16.3899 18.5475 17.7799 18.5475C19.1699 18.5475 20.2999 19.6775 20.2999 21.0675C20.2999 22.4575 19.1699 23.5875 17.7799 23.5875ZM17.7799 19.8175C17.0899 19.8175 16.5399 20.3775 16.5399 21.0575C16.5399 21.7375 17.0999 22.2975 17.7799 22.2975C18.4599 22.2975 19.0199 21.7375 19.0199 21.0575C19.0199 20.3775 18.4599 19.8175 17.7799 19.8175ZM7.68988 23.5875C6.29988 23.5875 5.16986 22.4575 5.16986 21.0675C5.16986 19.6775 6.29988 18.5475 7.68988 18.5475C9.07988 18.5475 10.2099 19.6775 10.2099 21.0675C10.2099 22.4575 9.07988 23.5875 7.68988 23.5875ZM7.68988 19.8175C6.99988 19.8175 6.44989 20.3775 6.44989 21.0575C6.44989 21.7375 7.00988 22.2975 7.68988 22.2975C8.36988 22.2975 8.93988 21.7375 8.93988 21.0575C8.93988 20.3775 8.37988 19.8175 7.68988 19.8175ZM14.9999 16.5775H10.5399C10.3099 16.5775 10.0999 16.4575 9.98987 16.2575L7.75989 12.3875C7.64989 12.1875 7.64989 11.9475 7.75989 11.7475L9.98987 7.8775C10.0999 7.6775 10.3199 7.5575 10.5399 7.5575H14.9999C15.2299 7.5575 15.4399 7.6775 15.5499 7.8775L17.7799 11.7475C17.8899 11.9475 17.8899 12.1875 17.7799 12.3875L15.5499 16.2575C15.4399 16.4575 15.2199 16.5775 14.9999 16.5775ZM10.9099 15.2975H14.6399L16.4999 12.0675L14.6399 8.83749H10.9099L9.04987 12.0675L10.9099 15.2975ZM22.9599 14.5975C21.5699 14.5975 20.4399 13.4675 20.4399 12.0775C20.4399 10.6875 21.5699 9.5575 22.9599 9.5575C24.3499 9.5575 25.4799 10.6875 25.4799 12.0775C25.4799 13.4675 24.3499 14.5975 22.9599 14.5975ZM22.9599 10.8275C22.2699 10.8275 21.7198 11.3875 21.7198 12.0675C21.7198 12.7475 22.2799 13.3075 22.9599 13.3075C23.6399 13.3075 24.1999 12.7475 24.1999 12.0675C24.1999 11.3875 23.6399 10.8275 22.9599 10.8275ZM2.5899 14.5975C1.1999 14.5975 0.0698853 13.4675 0.0698853 12.0775C0.0698853 10.6875 1.1999 9.5575 2.5899 9.5575C3.9799 9.5575 5.10986 10.6875 5.10986 12.0775C5.10986 13.4675 3.9799 14.5975 2.5899 14.5975ZM2.5899 10.8275C1.8999 10.8275 1.34985 11.3875 1.34985 12.0675C1.34985 12.7475 1.9099 13.3075 2.5899 13.3075C3.2699 13.3075 3.8299 12.7475 3.8299 12.0675C3.8299 11.3875 3.2699 10.8275 2.5899 10.8275ZM18.2599 5.47749C16.8699 5.47749 15.7399 4.3475 15.7399 2.9575C15.7399 1.5675 16.8699 0.4375 18.2599 0.4375C19.6499 0.4375 20.7799 1.5675 20.7799 2.9575C20.7799 4.3475 19.6499 5.47749 18.2599 5.47749ZM18.2599 1.7075C17.5699 1.7075 17.0199 2.26749 17.0199 2.94749C17.0199 3.62749 17.5799 4.1875 18.2599 4.1875C18.9399 4.1875 19.4999 3.62749 19.4999 2.94749C19.4999 2.26749 18.9399 1.7075 18.2599 1.7075ZM7.6499 5.47749C6.2599 5.47749 5.12988 4.3475 5.12988 2.9575C5.12988 1.5675 6.2599 0.4375 7.6499 0.4375C9.0399 0.4375 10.1699 1.5675 10.1699 2.9575C10.1699 4.3475 9.0399 5.47749 7.6499 5.47749ZM7.6499 1.7075C6.9599 1.7075 6.40985 2.26749 6.40985 2.94749C6.40985 3.62749 6.9699 4.1875 7.6499 4.1875C8.3299 4.1875 8.88989 3.62749 8.88989 2.94749C8.88989 2.26749 8.3299 1.7075 7.6499 1.7075Z" fill="white"/>
<path d="M15.0099 8.84524C14.8999 8.84524 14.7799 8.81523 14.6799 8.75523C14.3799 8.57523 14.2798 8.17524 14.4698 7.87524L16.6999 4.20524C16.8799 3.90524 17.2799 3.80523 17.5799 3.99523C17.8799 4.17523 17.9798 4.57524 17.7898 4.87524L15.5599 8.54523C15.4399 8.74523 15.2299 8.85523 15.0099 8.85523V8.84524Z" fill="white"/>
<path d="M21.0799 12.7175H17.2399C16.8899 12.7175 16.5999 12.4275 16.5999 12.0775C16.5999 11.7275 16.8899 11.4375 17.2399 11.4375H21.0799C21.4299 11.4375 21.7198 11.7275 21.7198 12.0775C21.7198 12.4275 21.4299 12.7175 21.0799 12.7175Z" fill="white"/>
<path d="M16.8598 20.0697C16.6298 20.0697 16.4098 19.9497 16.2898 19.7297L14.4499 16.2497C14.2799 15.9397 14.3998 15.5497 14.7198 15.3897C15.0398 15.2197 15.4199 15.3397 15.5899 15.6597L17.4298 19.1397C17.5998 19.4497 17.4798 19.8397 17.1598 19.9997C17.0598 20.0497 16.9598 20.0697 16.8598 20.0697Z" fill="white"/>
<path d="M10.4599 8.84393C10.2399 8.84393 10.0299 8.73391 9.90985 8.53391L7.80988 5.07392C7.62988 4.77392 7.7199 4.37392 8.0199 4.19392C8.3199 4.01392 8.70991 4.10392 8.89991 4.40392L10.9999 7.86391C11.1799 8.16391 11.0899 8.56392 10.7899 8.74392C10.6899 8.80392 10.5699 8.83392 10.4599 8.83392V8.84393Z" fill="white"/>
<path d="M8.21985 12.7175H4.7099C4.3599 12.7175 4.06989 12.4275 4.06989 12.0775C4.06989 11.7275 4.3599 11.4375 4.7099 11.4375H8.21985C8.56985 11.4375 8.85986 11.7275 8.85986 12.0775C8.85986 12.4275 8.56985 12.7175 8.21985 12.7175Z" fill="white"/>
<path d="M8.60989 20.0711C8.50989 20.0711 8.4099 20.0511 8.3099 20.0011C7.9999 19.8311 7.87988 19.4511 8.03988 19.1411L9.87991 15.6611C10.0499 15.3511 10.4299 15.2311 10.7499 15.3911C11.0599 15.5611 11.1799 15.9411 11.0199 16.2511L9.1799 19.7311C9.0599 19.9511 8.83989 20.0711 8.60989 20.0711Z" fill="white"/>
</svg>
