<svg width="29" height="26" viewBox="0 0 29 26" fill="none" xmlns="http://www.w3.org/2000/svg">
<path d="M19.6797 17.8269C19.5197 17.8269 19.3597 17.7869 19.2197 17.7169L14.5297 15.2569C14.1997 15.0869 13.9897 14.7469 13.9897 14.3669V6.29686C13.9897 5.74686 14.4397 5.29688 14.9897 5.29688C15.5397 5.29688 15.9897 5.74686 15.9897 6.29686V13.7569L20.1497 15.9369C20.6397 16.1969 20.8297 16.7969 20.5697 17.2869C20.3897 17.6269 20.0397 17.8269 19.6797 17.8269Z" fill="white"/>
<path d="M15.7201 25.3367C12.7001 25.3367 9.77012 24.2467 7.49012 22.2767C7.07012 21.9167 7.03012 21.2867 7.39012 20.8667C7.75012 20.4467 8.38012 20.4067 8.80012 20.7667C10.7201 22.4267 13.1801 23.3367 15.7201 23.3367C21.5601 23.3367 26.3201 18.5867 26.3201 12.7367C26.3201 6.88671 21.5701 2.13672 15.7201 2.13672C9.87012 2.13672 5.12012 6.88671 5.12012 12.7367C5.12012 13.2867 4.67012 13.7367 4.12012 13.7367C3.57012 13.7367 3.12012 13.2867 3.12012 12.7367C3.12012 5.78671 8.77012 0.136719 15.7201 0.136719C22.6701 0.136719 28.3201 5.78671 28.3201 12.7367C28.3201 19.6867 22.6701 25.3367 15.7201 25.3367Z" fill="white"/>
<path d="M4.37988 15.1775C4.10988 15.1775 3.85988 15.0675 3.66988 14.8875L0.609883 11.8275C0.219883 11.4375 0.219883 10.8075 0.609883 10.4175C0.999883 10.0275 1.62988 10.0275 2.01988 10.4175L4.37988 12.7775L6.73988 10.4175C7.12988 10.0275 7.75988 10.0275 8.14988 10.4175C8.53988 10.8075 8.53988 11.4375 8.14988 11.8275L5.08988 14.8875C4.89988 15.0775 4.64988 15.1775 4.37988 15.1775Z" fill="white"/>
</svg>
