<svg width="26" height="16" viewBox="0 0 26 16" fill="none" xmlns="http://www.w3.org/2000/svg">
<path d="M12.07 12.193V13.853H14.69V13.153H13.73L22.22 8.25299V8.953H22.92V7.29297H20.3V7.99298H21.27L12.77 12.903V12.193H12.07Z" fill="#46555C"/>
<path d="M4.45001 10.632L17.61 3.03204L13.8 0.832031L0.640015 8.43201L4.45001 10.632ZM2.29999 8.28204L3.34998 7.672V9.18201L2.29999 8.57202V8.28204ZM7.54999 8.03204L6.5 8.64203V5.862L7.54999 5.25201V8.03204ZM7.90002 5.052L8.95001 4.44202V7.22198L7.90002 7.83203V5.052ZM12.1 5.41199V2.63202L13.15 2.02203V4.802L12.1 5.41199ZM15.95 2.89203V3.18201L14.9 3.79199V2.28204L15.95 2.89203ZM14.55 2.08203V3.992L13.5 4.60199V1.82202L13.8 1.65204L14.55 2.09204V2.08203ZM11.75 5.612L10.7 6.22198V3.44202L11.75 2.83203V5.612ZM10.35 6.422L9.29999 7.03204V4.25201L10.35 3.64203V6.422ZM6.15002 6.06201V8.84204L5.09998 9.45203V6.672L6.15002 6.06201ZM4.75 9.65204L4.45001 9.82202L3.70001 9.38202V7.47198L4.75 6.862V9.64203V9.65204Z" fill="#46555C"/>
<path d="M18.13 3.34375L17.43 3.75372L24.89 8.05371L25.06 7.75372L25.24 7.44373L18.13 3.34375Z" fill="#46555C"/>
<path d="M12.43 15.2412L12.78 14.6412L5.67999 10.5312L4.96997 10.9412L12.43 15.2412Z" fill="#46555C"/>
<path d="M21.77 13.6108C21.77 13.8008 21.77 13.9508 21.76 14.0408C21.73 14.5508 21.57 14.9508 21.29 15.2308C21.01 15.5108 20.59 15.6508 20.04 15.6508H18.57C18.57 15.6508 18.49 15.6308 18.46 15.6008C18.43 15.5708 18.41 15.5308 18.41 15.4908V11.7108C18.41 11.7108 18.43 11.6308 18.46 11.6008C18.49 11.5708 18.53 11.5508 18.57 11.5508H20.01C20.57 11.5508 20.99 11.6908 21.28 11.9708C21.57 12.2508 21.73 12.6508 21.76 13.1608C21.76 13.2608 21.77 13.4008 21.77 13.5908V13.6108ZM19.2 12.2908V14.9208H20.01C20.32 14.9208 20.55 14.8408 20.71 14.6808C20.87 14.5208 20.95 14.3108 20.97 14.0408C20.97 13.9408 20.98 13.8008 20.98 13.6108C20.98 13.4208 20.98 13.2708 20.97 13.1808C20.95 12.9108 20.87 12.7008 20.7 12.5408C20.54 12.3808 20.3 12.3008 19.98 12.3008H19.2V12.2908Z" fill="#46555C"/>
</svg>
