<svg width="260" height="260" viewBox="0 0 260 260" fill="none" xmlns="http://www.w3.org/2000/svg">
<path d="M211.481 132.129C252.862 156.024 253.082 194.761 211.969 218.651C170.862 242.541 103.984 242.541 62.6026 218.651C21.2266 194.762 21.0086 156.024 62.1165 132.135C103.228 108.243 170.107 108.243 211.481 132.129Z" fill="#EBEFF0"/>
<mask id="mask0_268_32165" style="mask-type:luminance" maskUnits="userSpaceOnUse" x="73" y="120" width="166" height="105">
<path d="M233.287 170.282C240.064 174.195 240.055 180.538 233.278 184.451L184.844 221.363C178.058 225.276 167.07 225.285 160.302 221.363L79.0762 174.665C72.2991 170.752 72.3081 164.409 79.0943 160.496L143.034 123.583C149.811 119.671 160.799 119.662 167.576 123.574L233.287 170.282Z" fill="white"/>
</mask>
<g mask="url(#mask0_268_32165)">
</g>
<path d="M189.538 66.3827L148.248 89.997V82.907L89.7498 49.4547L31.2502 82.907L38.4449 88.1122L36.0968 101.831V147.428L50.7779 155.823L58.0313 159.971L62.1511 162.328L68.2306 196.374V211.247L115.496 238.276L162.761 211.247V196.434L189.538 211.745L239.835 182.986V95.148L189.538 66.3827Z" fill="#D5DDDF"/>
<path d="M88.2603 126.056L114.843 122.135L114.862 122.144V122.139L116.223 122.34L134.325 111.89V125.011L139.36 125.754V95.3444L88.2603 124.568V126.056Z" fill="#BFC6C9"/>
<path d="M55.511 152.918L59.7642 155.352L64.1444 151.644L55.511 152.918Z" fill="#A4ADB1"/>
<path d="M88.261 126.056V124.568L32.8643 92.8883V139.967L48.0217 148.635L87.2463 126.206L88.261 126.056ZM48.6606 136.41L49.966 139.664L49.4217 139.349L49.4101 143.865L47.8718 142.979L47.8841 138.462L47.3423 138.152L48.6606 136.41ZM44.5286 134.025L45.8354 137.28L45.2912 136.967L45.2794 141.482L43.7401 140.593L43.7562 136.078L43.2111 135.765L44.5286 134.025ZM40.7395 135.324C40.7372 136.545 39.9347 137.09 38.9061 136.641L38.9997 139.328L39.9722 139.887L40.2795 140.491L37.0096 138.603L37.3172 138.359L38.2894 138.919L38.4001 136.349C37.3706 135.612 36.576 134.144 36.5784 132.924L36.5873 129.69L38.7252 130.922L39.6028 132.788L39.4646 132.836L40.2488 134.002L39.9058 133.109L40.2518 133.085L39.7979 132.155L40.1626 131.75L40.745 132.087L40.747 132.11L40.7395 135.324ZM50.326 146.047L42.8171 141.709L42.8212 140.491L50.3294 144.826L50.326 146.047Z" fill="#A4ADB1"/>
<path d="M134.325 111.89L116.223 122.34L134.325 125.011V111.89Z" fill="#B3BCC0"/>
<path d="M88.2603 108.423V124.568L139.36 95.3444V85.9876L148.66 80.6691V73.3495L88.2603 107.893V108.423Z" fill="#8D999E"/>
<path d="M148.66 73.3495L88.2608 38.8096L27.8604 73.3495L88.2608 107.893L148.66 73.3495ZM66.3261 93.4786L31.1399 73.3508L88.2607 40.6827L108.03 51.9875L108.039 51.9836L125.745 62.1142L125.738 62.1188L139.807 70.168L145.378 73.3507L107.545 94.9932L88.2608 106.019L68.9731 94.9932L66.3261 93.4786Z" fill="#728187"/>
<path d="M107.546 94.9931L145.378 73.3508L139.808 70.1681L125.739 62.1189H125.737L116.819 57.0113H116.816L108.03 51.9877L88.261 40.6829L31.1401 73.3508L66.3264 93.4786L68.9733 94.9933L88.2611 106.019L107.546 94.9931ZM67.2918 92.594L33.6549 73.3507L88.261 42.1187L115.559 57.7356L115.563 57.7318L137.538 70.307L142.864 73.3508L106.698 94.0414L88.2611 104.58L69.8229 94.0414L67.2918 92.594Z" fill="#7F8D92"/>
<path d="M106.698 94.0414L142.864 73.3508L137.538 70.307L115.563 57.7319L115.559 57.7358L88.2609 42.1188L33.6548 73.3508L67.2915 92.594L69.8227 94.0414L88.2609 104.58L106.698 94.0414Z" fill="#63747B"/>
<path d="M88.2608 108.423V107.893L27.8604 73.3495V90.0232L32.8641 92.8883L88.2608 124.568V108.423Z" fill="#7F8D92"/>
<path d="M116.816 57.0113H116.82L125.737 62.1188H125.739L125.746 62.1142L108.039 51.9836L108.031 51.9877L116.816 57.0113Z" fill="#F5E4C9"/>
<path d="M42.8171 141.709L50.3261 146.047L50.3296 144.826L42.8213 140.491L42.8171 141.709Z" fill="#959EA2"/>
<path d="M43.7398 140.593L45.2793 141.482L45.2911 136.967L45.8353 137.28L44.5285 134.025L43.2109 135.765L43.7561 136.077L43.7398 140.593Z" fill="#959EA2"/>
<path d="M47.8719 142.979L49.4103 143.865L49.4219 139.349L49.9661 139.664L48.6606 136.41L47.3425 138.152L47.8843 138.462L47.8719 142.979Z" fill="#959EA2"/>
<path d="M40.1631 131.75L39.7984 132.155L40.2522 133.085L39.9062 133.109L40.2493 134.003L39.465 132.837L39.6033 132.788L38.7257 130.922L36.5877 129.691L36.5789 132.925C36.5764 134.144 37.371 135.613 38.4006 136.35L38.2899 138.919L37.3177 138.36L37.0101 138.603L40.2799 140.491L39.9727 139.888L39.0002 139.328L38.9066 136.641C39.935 137.09 40.7377 136.545 40.74 135.324L40.7479 132.111L40.7459 132.088L40.1631 131.75Z" fill="#959EA2"/>
<path d="M139.36 85.9876V95.3446V125.754L142.463 126.212L191.262 154.124V155.444L165.554 151.647L191.241 173.389V174.715L176.014 183.423L176.203 183.532L177.025 185.284L176.895 185.322L177.632 186.42L177.31 185.581L177.634 185.56L177.21 184.685L177.55 184.307L178.096 184.625L178.097 184.649L178.09 187.657C178.086 188.804 177.338 189.314 176.371 188.894L176.459 191.414L177.372 191.939L177.659 192.5L174.594 190.732L174.881 190.501L175.795 191.027L175.897 188.62C174.933 187.93 174.188 186.552 174.192 185.407L174.194 184.464L163.645 190.496V190.566L191.292 206.375V115.688L139.36 85.9876ZM185.517 188.679L186.739 191.727L186.23 191.435L186.22 195.669L184.778 194.834L184.792 190.605L184.279 190.309L185.517 188.679ZM181.646 186.441L182.868 189.491L182.361 189.201L182.347 193.431L180.904 192.604L180.919 188.368L180.407 188.073L181.646 186.441ZM187.077 197.707L180.04 193.645L180.043 192.5L187.081 196.567L187.077 197.707Z" fill="#BFC6C9"/>
<path d="M191.293 115.688L243.224 85.9876L191.293 56.2881L148.66 80.6692L139.36 85.9877L191.293 115.688ZM159.068 76.3291L159.061 76.3239L174.289 67.6155L174.292 67.6202L174.296 67.6229L191.292 57.9009L240.401 85.9927L207.874 104.596L191.292 114.077L174.709 104.596L142.181 85.9927L159.068 76.3291Z" fill="#D5DBDD"/>
<path d="M215.755 99.979L215.847 100.031L207.874 104.596L240.401 85.9927L191.292 57.9009L174.296 67.6228L223.457 95.5743L215.755 99.979Z" fill="#A4ADB1"/>
<path d="M142.181 85.9927L174.709 104.596L191.293 114.077L207.874 104.596L215.847 100.031L215.756 99.979L215.754 99.9803L208.232 104.281L159.069 76.3291L142.181 85.9927Z" fill="#BFC6C9"/>
<path d="M191.293 115.688V206.375L243.225 176.681V85.9876L191.293 115.688Z" fill="#A4ADB1"/>
<path d="M180.04 193.645L187.077 197.707L187.081 196.567L180.044 192.5L180.04 193.645Z" fill="#959EA2"/>
<path d="M180.904 192.604L182.347 193.431L182.361 189.201L182.868 189.491L181.646 186.441L180.407 188.073L180.919 188.368L180.904 192.604Z" fill="#959EA2"/>
<path d="M184.778 194.835L186.22 195.669L186.23 191.435L186.74 191.727L185.517 188.679L184.279 190.309L184.792 190.605L184.778 194.835Z" fill="#959EA2"/>
<path d="M174.192 185.407C174.188 186.552 174.933 187.93 175.897 188.62L175.796 191.027L174.882 190.502L174.594 190.732L177.66 192.5L177.373 191.939L176.46 191.414L176.372 188.894C177.339 189.314 178.087 188.805 178.091 187.658L178.098 184.65L178.097 184.626L177.551 184.308L177.21 184.685L177.634 185.56L177.31 185.581L177.632 186.421L176.895 185.322L177.025 185.284L176.203 183.533L176.014 183.423L174.195 184.464L174.192 185.407Z" fill="#959EA2"/>
<path d="M166.74 71.9423L174.293 67.6203L174.289 67.6155L159.061 76.3239L159.068 76.3291L166.735 71.9423H166.74Z" fill="#F5E4C9"/>
<path d="M215.753 99.9803L215.756 99.979L223.458 95.5743L174.297 67.6228L174.293 67.6202L166.74 71.9422L215.753 99.9803Z" fill="#B3BCC0"/>
<path d="M208.232 104.281L215.754 99.9804L166.74 71.9423H166.736L159.068 76.3291H159.069L208.232 104.281Z" fill="#D5DBDD"/>
<path d="M66.0416 150.044L114.844 122.135L88.261 126.056L87.2462 126.206L48.0215 148.635L38.4438 154.112L66.0416 150.044Z" fill="#8D999E"/>
<path d="M66.0416 150.044L38.4438 154.112V155.439L55.5116 152.918L64.145 151.644L66.0416 150.044Z" fill="#D2DBDF"/>
<path d="M116.223 122.34L114.862 122.139L163.64 150.032H163.645L163.649 150.038L163.664 150.046L191.262 154.124L142.462 126.212L139.36 125.754L134.325 125.011L116.223 122.34Z" fill="#8D999E"/>
<path d="M163.665 150.052L165.555 151.647L191.263 155.444V154.124L163.665 150.046V150.052Z" fill="#D2DBDF"/>
<path d="M163.634 150.038L163.64 150.032L114.862 122.139V122.144L163.634 150.038Z" fill="#BFC6C9"/>
<path d="M163.665 150.046L163.65 150.038L163.665 150.052V150.046Z" fill="#BFC6C9"/>
<path d="M87.2464 202.632L66.0417 190.502V205.86L114.844 233.769V179.275L87.2464 202.632ZM80.4765 210.552L71.3679 205.321V197.618L80.4765 202.859V210.552ZM109.414 217.134L110.565 220L110.086 219.728L110.077 223.708L108.723 222.926L108.733 218.948L108.255 218.669L109.414 217.134ZM105.776 215.035L106.927 217.903L106.449 217.624L106.436 221.602L105.085 220.822L105.094 216.843L104.615 216.564L105.776 215.035ZM102.443 213.349L102.437 216.175C102.433 217.255 101.729 217.736 100.824 217.339L100.904 219.705L101.761 220.203L102.032 220.733L99.1511 219.067L99.4216 218.853L100.279 219.347L100.374 217.084C99.4702 216.432 98.7705 215.138 98.7724 214.067L98.7829 211.213L100.667 212.3L101.438 213.943L101.314 213.986L102.006 215.014L101.704 214.223L102.01 214.202L101.61 213.387L101.93 213.031L102.443 213.328V213.349H102.443ZM110.881 225.622L104.271 221.803L104.272 220.733L110.885 224.545L110.881 225.622Z" fill="#BFC6C9"/>
<path d="M163.635 150.038L114.863 122.144L114.844 122.135L66.0417 150.044L114.844 177.949V177.942L163.635 150.038ZM114.667 176.435L99.0836 167.528L68.516 150.044L114.667 123.647L160.817 150.044L130.251 167.528L114.667 176.435Z" fill="#BFC6C9"/>
<path d="M114.666 123.647L68.5154 150.044L99.0829 167.528L114.666 158.615V123.647Z" fill="#8D999E"/>
<path d="M114.667 158.615L99.0835 167.528L114.667 176.435L130.251 167.528L114.667 158.615Z" fill="#BFC6C9"/>
<path d="M142.442 202.624L114.844 179.267V179.275V233.769L163.645 205.86V190.566V190.496L142.442 202.624Z" fill="#A4ADB1"/>
<path d="M114.666 158.615L130.25 167.528L160.817 150.044L114.666 123.647V158.615Z" fill="#6E7B80"/>
<path d="M114.844 177.949L66.0416 150.044L64.145 151.644L59.7648 155.352L38.4438 173.397L87.2462 201.306L114.844 177.949Z" fill="#8D999E"/>
<path d="M87.2461 201.306V202.632L114.844 179.275V179.267V177.949L87.2461 201.306Z" fill="#68787E"/>
<path d="M87.2462 201.306L38.4438 173.397V174.721L66.0416 190.502L87.2462 202.632V201.306Z" fill="#D2DBDF"/>
<path d="M163.649 150.038L163.645 150.032H163.64L163.635 150.038L114.844 177.942L142.442 201.3L191.242 173.389L165.554 151.647L163.664 150.052L163.649 150.038Z" fill="#8D999E"/>
<path d="M114.844 177.942V177.949V179.267L142.442 202.624V201.3L114.844 177.942Z" fill="#68787E"/>
<path d="M142.442 201.3V202.624L163.645 190.496L174.194 184.464L176.014 183.423L191.242 174.715V173.389L142.442 201.3Z" fill="#D2DBDF"/>
<path d="M104.271 221.803L110.88 225.622L110.884 224.545L104.272 220.733L104.271 221.803Z" fill="#959EA2"/>
<path d="M105.084 220.822L106.435 221.602L106.448 217.624L106.927 217.903L105.776 215.035L104.614 216.564L105.094 216.843L105.084 220.822Z" fill="#959EA2"/>
<path d="M108.723 222.926L110.077 223.708L110.086 219.728L110.565 220L109.414 217.134L108.255 218.669L108.734 218.948L108.723 222.926Z" fill="#959EA2"/>
<path d="M101.61 213.387L102.01 214.202L101.704 214.223L102.006 215.014L101.314 213.986L101.438 213.943L100.667 212.301L98.7829 211.213L98.7725 214.067C98.7706 215.138 99.4704 216.432 100.374 217.084L100.279 219.347L99.4217 218.853L99.1511 219.067L102.032 220.733L101.761 220.203L100.904 219.705L100.824 217.339C101.729 217.736 102.433 217.255 102.437 216.175L102.443 213.349V213.328L101.93 213.032L101.61 213.387Z" fill="#959EA2"/>
<path d="M71.3679 205.321L80.4765 210.552V202.859L71.3679 197.618V205.321ZM71.9323 199.947L79.9105 204.543V205.315L71.9323 200.724V199.947ZM71.9323 201.805L79.9105 206.396V207.169L71.9323 202.581V201.805ZM71.9323 203.456L79.9105 208.045V208.823L71.9323 204.229V203.456Z" fill="#D4DBDE"/>
<path d="M79.9099 208.045L71.9316 203.456V204.229L79.9099 208.823V208.045Z" fill="#BFC6C9"/>
<path d="M79.9099 206.396L71.9316 201.805V202.58L79.9099 207.169V206.396Z" fill="#BFC6C9"/>
<path d="M79.9099 204.543L71.9316 199.947V200.724L79.9099 205.315V204.543Z" fill="#BFC6C9"/>
<path d="M36.1308 30.1208L37.2264 34.8361L41.9424 35.9321L37.2264 37.0275L36.1308 41.7435L35.035 37.0275L30.3198 35.9321L35.035 34.8361L36.1308 30.1208Z" fill="#C2C2C2"/>
<path d="M224.406 80.5601L224.889 82.637L226.967 83.1205L224.889 83.6027L224.406 85.6795L223.924 83.6027L221.845 83.1205L223.924 82.637L224.406 80.5601Z" fill="#C2C2C2"/>
<path d="M253.106 152.879L253.589 154.956L255.667 155.439L253.589 155.922L253.106 157.998L252.624 155.922L250.545 155.439L252.624 154.956L253.106 152.879Z" fill="#C2C2C2"/>
<path d="M209.601 55.7927L210.198 58.3648L212.772 58.9636L210.198 59.5617L209.601 62.1346L209.003 59.5617L206.429 58.9636L209.003 58.3648L209.601 55.7927Z" fill="#C2C2C2"/>
<path d="M7.50424 118.963L8.10143 121.536L10.6752 122.134L8.10143 122.732L7.50424 125.306L6.90665 122.732L4.33325 122.134L6.90665 121.536L7.50424 118.963Z" fill="#C2C2C2"/>
<path d="M148.4 43.9526L148.844 45.8683L150.761 46.3137L148.844 46.7593L148.4 48.6764L147.955 46.7593L146.038 46.3137L147.955 45.8683L148.4 43.9526Z" fill="#C2C2C2"/>
<path d="M171.831 21.6667L172.276 23.5824L174.193 24.028L172.276 24.4735L171.831 26.3898L171.386 24.4735L169.47 24.028L171.386 23.5824L171.831 21.6667Z" fill="#C2C2C2"/>
<path d="M20.3739 181.095L20.9713 183.666L23.5449 184.265L20.9713 184.864L20.3739 187.436L19.7768 184.864L17.2029 184.265L19.7768 183.666L20.3739 181.095Z" fill="#C2C2C2"/>
<path d="M59.7313 155.42L32.623 140.201V93.1183M32.623 93.1183L27.8672 90.2648V73.1438L88.2663 38.4262L148.665 73.1438V80.7531M32.623 93.1183L88.2663 124.507L139.438 95.4962M191.468 56.4984L242.831 85.9845L191.468 115.471L139.438 85.9845L191.468 56.4984Z" stroke="black" stroke-linecap="round" stroke-linejoin="round"/>
<path d="M242.831 85.9845V176.821L191.468 205.831L163.408 190.137" stroke="black" stroke-linecap="round" stroke-linejoin="round"/>
<path d="M139.154 85.9845L140.105 125.458" stroke="black" stroke-linecap="round" stroke-linejoin="round"/>
<path d="M28.3428 73.6193L88.2663 107.861L148.19 73.6193" stroke="black" stroke-linecap="round" stroke-linejoin="round"/>
<path d="M190.992 115.946V205.356" stroke="black" stroke-linecap="round" stroke-linejoin="round"/>
<path d="M114.899 179.674V232.94" stroke="black" stroke-linecap="round" stroke-linejoin="round"/>
<path d="M114.899 178.248L66.3894 150.188L114.899 122.604L163.408 150.188L114.899 178.248Z" stroke="black" stroke-linecap="round" stroke-linejoin="round"/>
<path d="M163.884 150.188L165.786 151.824M165.786 151.824L190.992 173.492V174.919L142.483 202.502L114.899 179.199L87.3152 202.502L38.8057 174.919V173.492L64.4872 151.615L38.8057 155.42V153.993L87.3152 126.409L114.423 122.129L142.483 126.409L190.992 153.993V155.42L165.786 151.824Z" stroke="black" stroke-linecap="round" stroke-linejoin="round"/>
<path d="M65.9138 191.088V206.307L114.899 233.415L163.884 205.356V191.088" stroke="black" stroke-linecap="round" stroke-linejoin="round"/>
</svg>
