<svg width="20" height="21" viewBox="0 0 20 21" fill="none" xmlns="http://www.w3.org/2000/svg">
<path d="M10 15.3292C9.59 15.3292 9.25 14.9892 9.25 14.5792V5.94922C9.25 5.53922 9.59 5.19922 10 5.19922C10.41 5.19922 10.75 5.53922 10.75 5.94922V14.5792C10.75 14.9892 10.41 15.3292 10 15.3292Z" fill="#EEE9E3"/>
<path d="M14.3102 11.0195H5.68018C5.27018 11.0195 4.93018 10.6795 4.93018 10.2695C4.93018 9.85953 5.27018 9.51953 5.68018 9.51953H14.3102C14.7202 9.51953 15.0602 9.85953 15.0602 10.2695C15.0602 10.6795 14.7202 11.0195 14.3102 11.0195Z" fill="#EEE9E3"/>
<path d="M10 20.0195C4.62 20.0195 0.25 15.6495 0.25 10.2695C0.25 4.88953 4.62 0.519531 10 0.519531C15.38 0.519531 19.75 4.88953 19.75 10.2695C19.75 15.6495 15.38 20.0195 10 20.0195ZM10 2.01953C5.45 2.01953 1.75 5.71953 1.75 10.2695C1.75 14.8195 5.45 18.5195 10 18.5195C14.55 18.5195 18.25 14.8195 18.25 10.2695C18.25 5.71953 14.55 2.01953 10 2.01953Z" fill="#EEE9E3"/>
</svg>
