<svg width="29" height="27" viewBox="0 0 29 27" fill="none" xmlns="http://www.w3.org/2000/svg">
<path d="M26.7699 24.2437L25.7199 25.4937L24.6899 24.2437V7.84375H26.7699V24.2437Z" stroke="white" stroke-width="1.01" stroke-linecap="round" stroke-linejoin="round"/>
<path d="M24.6899 9.29297H26.7699" stroke="white" stroke-width="1.01" stroke-linecap="round" stroke-linejoin="round"/>
<path d="M22.1499 4.48221C22.1499 2.83221 23.4899 1.49219 25.1399 1.49219C26.7899 1.49219 28.1299 2.83221 28.1299 4.48221H22.1499Z" stroke="white" stroke-width="1.01" stroke-linecap="round" stroke-linejoin="round"/>
<path d="M25.14 1.49219H7.61995C6.00995 1.49219 4.70996 2.79219 4.70996 4.40219V22.5822" stroke="white" stroke-width="1.01" stroke-linecap="round" stroke-linejoin="round"/>
<path d="M22.1499 4.48047V22.7605C22.1499 24.4105 20.8099 25.7505 19.1599 25.7505C17.5099 25.7505 16.1699 24.4105 16.1699 22.7605L1.10986 22.8304C1.10986 24.4404 2.40987 25.7404 4.01987 25.7404H19.1599" stroke="white" stroke-width="1.01" stroke-linecap="round" stroke-linejoin="round"/>
<path d="M8.44971 7.28125H18.7097" stroke="white" stroke-width="1.01" stroke-linecap="round" stroke-linejoin="round"/>
<path d="M8.44971 10.7109H18.7097" stroke="white" stroke-width="1.01" stroke-linecap="round" stroke-linejoin="round"/>
<path d="M8.44971 14.1328H18.7097" stroke="white" stroke-width="1.01" stroke-linecap="round" stroke-linejoin="round"/>
<path d="M8.44971 17.5508H18.7097" stroke="white" stroke-width="1.01" stroke-linecap="round" stroke-linejoin="round"/>
</svg>
