<svg width="20" height="21" viewBox="0 0 20 21" fill="none" xmlns="http://www.w3.org/2000/svg">
<path d="M19.1104 20.0159H1.11035C0.700352 20.0159 0.360352 19.6759 0.360352 19.2659V15.3359C0.360352 14.9259 0.700352 14.5859 1.11035 14.5859C1.52035 14.5859 1.86035 14.9259 1.86035 15.3359V18.5259H18.3604V15.3359C18.3604 14.9259 18.7004 14.5859 19.1104 14.5859C19.5204 14.5859 19.8604 14.9259 19.8604 15.3359V19.2659C19.8604 19.6759 19.5204 20.0159 19.1104 20.0159Z" fill="#EEE9E3"/>
<path d="M10.1104 15.6873C9.92044 15.6873 9.73042 15.6173 9.58042 15.4673L5.72043 11.6173C5.43043 11.3273 5.43043 10.8473 5.72043 10.5573C6.01043 10.2673 6.49049 10.2673 6.78049 10.5573L10.1205 13.8774L13.4504 10.5573C13.7404 10.2673 14.2205 10.2673 14.5105 10.5573C14.8005 10.8473 14.8005 11.3273 14.5105 11.6173L10.6505 15.4673C10.5005 15.6173 10.3105 15.6873 10.1205 15.6873H10.1104Z" fill="#EEE9E3"/>
<path d="M10.1104 15.6878C9.70035 15.6878 9.36035 15.3478 9.36035 14.9378V1.25781C9.36035 0.847813 9.70035 0.507812 10.1104 0.507812C10.5204 0.507812 10.8604 0.847813 10.8604 1.25781V14.9378C10.8604 15.3478 10.5204 15.6878 10.1104 15.6878Z" fill="#EEE9E3"/>
</svg>
