<svg width="20" height="20" viewBox="0 0 20 20" fill="none" xmlns="http://www.w3.org/2000/svg">
<path d="M7.49935 18.3333H12.4993C16.666 18.3333 18.3327 16.6666 18.3327 12.5V7.49996C18.3327 3.33329 16.666 1.66663 12.4993 1.66663H7.49935C3.33268 1.66663 1.66602 3.33329 1.66602 7.49996V12.5C1.66602 16.6666 3.33268 18.3333 7.49935 18.3333Z" stroke="black" stroke-width="1.5" stroke-linecap="round" stroke-linejoin="round"/>
<path d="M7.50065 8.33333C8.42113 8.33333 9.16732 7.58714 9.16732 6.66667C9.16732 5.74619 8.42113 5 7.50065 5C6.58018 5 5.83398 5.74619 5.83398 6.66667C5.83398 7.58714 6.58018 8.33333 7.50065 8.33333Z" stroke="black" stroke-width="1.5" stroke-linecap="round" stroke-linejoin="round"/>
<path d="M2.22461 15.7917L6.33294 13.0333C6.99128 12.5917 7.94128 12.6417 8.53294 13.15L8.80794 13.3917C9.45794 13.95 10.5079 13.95 11.1579 13.3917L14.6246 10.4167C15.2746 9.85834 16.3246 9.85834 16.9746 10.4167L18.3329 11.5833" stroke="black" stroke-width="1.5" stroke-linecap="round" stroke-linejoin="round"/>
</svg>
