<?xml version="1.0" standalone="no"?>
<!DOCTYPE svg PUBLIC "-//W3C//DTD SVG 20010904//EN"
 "http://www.w3.org/TR/2001/REC-SVG-20010904/DTD/svg10.dtd">
<svg version="1.0" xmlns="http://www.w3.org/2000/svg"
 width="512.000000pt" height="512.000000pt" viewBox="0 0 512.000000 512.000000"
 preserveAspectRatio="xMidYMid meet">

<g transform="translate(0.000000,512.000000) scale(0.100000,-0.100000)"
fill="#000000" stroke="none">
<path d="M1055 5099 c-33 -11 -82 -38 -110 -59 -27 -22 -230 -220 -451 -442
-342 -343 -405 -412 -430 -463 l-29 -60 -3 -1880 c-2 -2076 -7 -1932 61 -2031
46 -67 119 -121 197 -144 64 -20 91 -20 1790 -18 l1725 3 62 29 c69 31 148
107 181 172 39 77 56 242 31 298 -23 51 -103 55 -128 7 -6 -11 -11 -49 -11
-86 0 -103 -16 -151 -69 -206 -31 -31 -60 -51 -87 -58 -30 -8 -529 -10 -1746
-9 l-1705 3 -48 30 c-36 22 -57 45 -77 84 l-28 53 0 1849 0 1848 373 3 c333 3
376 5 412 21 46 21 97 67 128 117 21 34 22 46 27 420 l5 385 1309 3 c925 1
1321 -1 1350 -9 57 -15 129 -91 144 -152 8 -32 12 -204 12 -566 0 -508 1 -522
20 -541 30 -30 83 -27 109 6 21 26 21 36 21 545 0 537 -3 586 -42 663 -33 65
-112 141 -181 172 l-62 29 -1345 2 c-1335 2 -1345 2 -1405 -18z m-101 -876
c-31 -49 -60 -53 -376 -53 l-293 0 340 340 340 340 3 -301 c2 -262 0 -305 -14
-326z"/>
<path d="M1659 4577 c-18 -12 -44 -38 -56 -56 -22 -32 -23 -44 -23 -203 0
-195 8 -223 72 -266 33 -21 54 -26 123 -30 98 -5 127 0 155 30 26 28 25 58 0
91 -19 24 -28 26 -108 29 l-87 3 -3 138 -3 137 786 0 786 0 -3 -137 -3 -138
-549 -3 c-548 -2 -550 -2 -573 -24 -38 -35 -29 -89 18 -113 24 -13 114 -15
567 -15 375 0 549 3 573 11 41 14 93 61 109 99 7 18 10 86 8 198 -3 186 -7
198 -72 246 -27 21 -37 21 -855 24 l-828 2 -34 -23z"/>
<path d="M3902 3453 c-24 -8 -72 -42 -111 -78 -80 -73 -106 -81 -199 -65 -121
22 -239 -23 -302 -116 -38 -55 -48 -82 -59 -159 -12 -83 -29 -106 -109 -148
-125 -66 -185 -157 -186 -278 0 -55 6 -77 37 -143 45 -94 46 -129 7 -204 -94
-181 -39 -348 146 -440 74 -37 92 -64 106 -150 13 -83 38 -139 86 -187 37 -38
122 -85 155 -85 16 0 17 -24 17 -357 0 -328 2 -361 19 -399 21 -47 50 -70 104
-85 55 -15 88 -2 248 97 78 48 146 87 153 87 6 0 71 -37 145 -83 164 -102 197
-115 254 -99 47 12 81 39 105 84 15 26 17 78 20 391 l3 360 43 12 c54 14 122
65 158 117 27 40 36 70 58 176 13 66 38 93 122 133 61 29 105 72 140 139 18
34 23 59 23 128 0 78 -3 91 -34 150 -44 84 -44 124 0 209 31 59 34 73 34 150
0 75 -3 91 -29 137 -37 67 -68 96 -147 137 -74 38 -105 78 -114 144 -17 125
-73 210 -168 256 -70 34 -123 41 -201 26 -89 -17 -117 -8 -184 57 -78 76 -137
103 -227 102 -38 0 -89 -7 -113 -16z m234 -194 c83 -77 139 -103 224 -103 36
0 88 3 115 8 91 14 157 -45 170 -151 14 -121 72 -200 186 -258 75 -38 100 -69
107 -133 4 -37 -1 -56 -34 -119 -35 -68 -38 -82 -38 -150 1 -65 5 -82 37 -144
64 -122 46 -189 -67 -250 -122 -66 -176 -140 -191 -261 -9 -75 -35 -115 -92
-140 -42 -18 -51 -19 -104 -8 -117 25 -224 -7 -304 -90 -51 -53 -84 -70 -135
-70 -53 0 -74 11 -137 75 -72 73 -142 100 -238 90 -114 -12 -155 -9 -183 12
-45 33 -63 67 -72 136 -17 119 -73 198 -174 247 -71 33 -89 50 -111 104 -20
46 -14 79 29 160 27 53 31 69 31 141 0 71 -4 89 -32 146 -42 85 -46 101 -34
146 13 48 48 81 123 117 95 45 151 126 168 243 9 70 27 103 74 137 23 17 39
20 89 17 148 -9 191 -6 241 19 28 13 70 45 95 71 60 60 76 68 139 69 51 0 55
-2 118 -61z m-423 -1861 c12 -6 47 -34 78 -63 84 -77 117 -90 224 -90 106 0
146 17 215 90 48 50 93 75 135 75 l25 0 0 -349 c0 -193 -3 -352 -7 -354 -5 -3
-75 37 -158 88 -157 98 -206 116 -259 95 -16 -6 -90 -49 -166 -95 -75 -47
-142 -85 -148 -85 -9 0 -12 93 -12 350 l0 350 26 0 c14 0 35 -5 47 -12z"/>
<path d="M3858 2964 c-119 -28 -261 -121 -337 -219 -92 -119 -134 -242 -134
-390 0 -175 57 -310 188 -441 88 -89 177 -141 295 -170 89 -22 251 -15 340 15
191 65 337 217 406 421 25 73 26 271 2 345 -73 225 -238 386 -453 440 -73 19
-230 18 -307 -1z m355 -176 c183 -87 288 -267 274 -468 -7 -96 -37 -175 -95
-253 -168 -221 -493 -251 -697 -65 -121 111 -174 255 -154 420 21 173 156 333
327 389 44 15 81 18 162 16 98 -2 110 -5 183 -39z"/>
<path d="M611 3274 c-27 -35 -26 -57 3 -91 l24 -28 959 -3 c527 -2 973 0 991
3 66 12 95 82 52 125 -20 20 -33 20 -1014 20 l-995 0 -20 -26z"/>
<path d="M633 2768 c-48 -23 -51 -103 -4 -127 13 -8 329 -11 1004 -11 l984 0
21 23 c31 33 29 80 -4 106 -27 21 -30 21 -1003 20 -662 0 -983 -4 -998 -11z"/>
<path d="M627 2239 c-46 -27 -40 -111 10 -130 14 -5 432 -9 997 -9 970 0 973
0 1000 21 34 27 36 77 3 107 l-23 22 -985 0 c-669 -1 -990 -4 -1002 -11z"/>
<path d="M611 1694 c-27 -35 -26 -57 3 -91 l24 -28 992 0 992 0 19 24 c25 30
24 76 -1 101 -20 20 -33 20 -1014 20 l-995 0 -20 -26z"/>
<path d="M627 939 c-46 -27 -41 -105 9 -128 18 -8 173 -11 518 -11 484 0 494
0 520 21 33 26 36 79 6 109 -19 19 -33 20 -527 20 -336 -1 -514 -4 -526 -11z"/>
</g>
</svg>
