<svg width="16" height="16" viewBox="0 0 16 16" fill="none" xmlns="http://www.w3.org/2000/svg">
<path d="M12.89 4.90283H9.90997C10.34 4.47283 10.6 3.89279 10.6 3.23279C10.6 1.94279 9.55 0.882812 8.25 0.882812C6.95 0.882812 5.90002 1.93279 5.90002 3.23279C5.90002 3.88279 6.17003 4.47283 6.59003 4.90283H3.60999L0.669983 15.5728H15.83L12.89 4.90283ZM6.59003 3.23279C6.59003 2.31279 7.34 1.57281 8.25 1.57281C9.16 1.57281 9.90997 2.32279 9.90997 3.23279C9.90997 4.14279 9.16 4.90283 8.25 4.90283C7.34 4.90283 6.59003 4.15279 6.59003 3.23279ZM1.57001 14.8928L4.14001 5.58282H12.37L14.94 14.8928H1.58002H1.57001Z" fill="#46555C"/>
</svg>
