<svg width="29" height="29" viewBox="0 0 29 29" fill="none" xmlns="http://www.w3.org/2000/svg">
<path d="M13.5297 23.9408H3.54965C2.36965 23.9408 1.40967 22.9808 1.40967 21.8008V3.1908C1.40967 2.0108 2.36965 1.05078 3.54965 1.05078H17.9997C19.1797 1.05078 20.1397 2.0108 20.1397 3.1908V8.7608" stroke="#071C25" stroke-width="1.01" stroke-linecap="round" stroke-linejoin="round"/>
<path d="M5.16992 5.24219H16.0999" stroke="#071C25" stroke-width="1.01" stroke-linecap="round" stroke-linejoin="round"/>
<path d="M5.16992 8.76172H12.0699" stroke="#071C25" stroke-width="1.01" stroke-linecap="round" stroke-linejoin="round"/>
<path d="M5.16992 12.2891H9.6799" stroke="#071C25" stroke-width="1.01" stroke-linecap="round" stroke-linejoin="round"/>
<path d="M5.16992 15.8125H7.81992" stroke="#071C25" stroke-width="1.01" stroke-linecap="round" stroke-linejoin="round"/>
<path d="M5.16992 19.332H7.81992" stroke="#071C25" stroke-width="1.01" stroke-linecap="round" stroke-linejoin="round"/>
<path d="M24.5599 8.76172C24.5599 10.8617 26.2599 12.5617 28.3599 12.5617V20.0517C28.3599 24.3117 20.0399 28.1817 20.0399 28.1817H19.9499C19.9499 28.1817 11.6299 24.3217 11.6299 20.0517C11.6299 15.7917 11.6299 12.5617 11.6299 12.5617C13.7299 12.5617 15.4299 10.8617 15.4299 8.76172H24.5599Z" stroke="#071C25" stroke-width="1.01" stroke-linecap="round" stroke-linejoin="round"/>
<path d="M22.9897 12.0898C22.9897 13.4698 24.1097 14.5898 25.4897 14.5898V19.5099C25.4897 22.3099 20.0198 24.8499 20.0198 24.8499H19.9598C19.9598 24.8499 14.4897 22.3099 14.4897 19.5099C14.4897 16.7099 14.4897 14.5898 14.4897 14.5898C15.8697 14.5898 16.9897 13.4698 16.9897 12.0898H22.9897Z" stroke="#071C25" stroke-width="1.01" stroke-linecap="round" stroke-linejoin="round"/>
</svg>
