<svg width="20" height="22" viewBox="0 0 20 22" fill="none" xmlns="http://www.w3.org/2000/svg">
<path d="M15.9 7.91219C17.6729 7.91219 19.11 6.47501 19.11 4.70218C19.11 2.92934 17.6729 1.49219 15.9 1.49219C14.1272 1.49219 12.6899 2.92934 12.6899 4.70218C12.6899 6.47501 14.1272 7.91219 15.9 7.91219Z" stroke="#EFEAE4" stroke-width="1.5" stroke-linecap="round" stroke-linejoin="round"/>
<path d="M4.31006 14.0919C6.08289 14.0919 7.52002 12.6547 7.52002 10.8819C7.52002 9.10905 6.08289 7.67188 4.31006 7.67188C2.53722 7.67188 1.09998 9.10905 1.09998 10.8819C1.09998 12.6547 2.53722 14.0919 4.31006 14.0919Z" stroke="#EFEAE4" stroke-width="1.5" stroke-linecap="round" stroke-linejoin="round"/>
<path d="M15.9 20.2716C17.6729 20.2716 19.11 18.8344 19.11 17.0616C19.11 15.2887 17.6729 13.8516 15.9 13.8516C14.1272 13.8516 12.6899 15.2887 12.6899 17.0616C12.6899 18.8344 14.1272 20.2716 15.9 20.2716Z" stroke="#EFEAE4" stroke-width="1.5" stroke-linecap="round" stroke-linejoin="round"/>
<path d="M12.61 5.69141L6.93994 8.9214" stroke="#EFEAE4" stroke-width="1.5" stroke-linecap="round" stroke-linejoin="round"/>
<path d="M6.93994 12.7227L12.84 16.1027" stroke="#EFEAE4" stroke-width="1.5" stroke-linecap="round" stroke-linejoin="round"/>
</svg>
