<svg width="37" height="29" viewBox="0 0 37 29" fill="none" xmlns="http://www.w3.org/2000/svg">
<path d="M10.4098 22.7881H18.7998C19.9798 22.7881 20.9398 21.8281 20.9398 20.6481V10.4681C20.9398 9.28814 19.9798 8.32812 18.7998 8.32812H2.95984C1.77984 8.32812 0.819824 9.28814 0.819824 10.4681V20.6481C0.819824 21.8281 1.77984 22.7881 2.95984 22.7881H5.00983V28.2181L10.4098 22.7881Z" stroke="#071C25" stroke-width="1.01" stroke-linecap="round" stroke-linejoin="round"/>
<path d="M4.59961 12.1172H17.2697" stroke="#071C25" stroke-width="1.01" stroke-linecap="round" stroke-linejoin="round"/>
<path d="M4.59961 15.6094H17.2697" stroke="#071C25" stroke-width="1.01" stroke-linecap="round" stroke-linejoin="round"/>
<path d="M4.59961 19.0977H17.2697" stroke="#071C25" stroke-width="1.01" stroke-linecap="round" stroke-linejoin="round"/>
<path d="M15.7798 8.29953V3.15955C15.7798 1.97955 16.7397 1.01953 17.9197 1.01953H33.7598C34.9398 1.01953 35.8998 1.97955 35.8998 3.15955V13.3395C35.8998 14.5195 34.9398 15.4796 33.7598 15.4796H31.7098V20.9095L26.3098 15.4796H20.9498" stroke="#071C25" stroke-width="1.01" stroke-linecap="round" stroke-linejoin="round"/>
<path d="M32.1097 4.80859H19.4497" stroke="#071C25" stroke-width="1.01" stroke-linecap="round" stroke-linejoin="round"/>
<path d="M32.1095 8.30078H23.5195" stroke="#071C25" stroke-width="1.01" stroke-linecap="round" stroke-linejoin="round"/>
<path d="M32.1095 11.7891H23.5195" stroke="#071C25" stroke-width="1.01" stroke-linecap="round" stroke-linejoin="round"/>
</svg>
