<svg width="21" height="16" viewBox="0 0 21 16" fill="none" xmlns="http://www.w3.org/2000/svg">
<path d="M10.3297 11.3811C9.01968 11.3811 7.94971 10.3111 7.94971 9.0011C7.94971 7.6911 9.01968 6.62109 10.3297 6.62109C11.6397 6.62109 12.7097 7.6911 12.7097 9.0011C12.7097 10.3111 11.6397 11.3811 10.3297 11.3811ZM10.3297 7.76111C9.63968 7.76111 9.07968 8.32111 9.07968 9.01111C9.07968 9.70111 9.63968 10.2611 10.3297 10.2611C11.0197 10.2611 11.5797 9.70111 11.5797 9.01111C11.5797 8.32111 11.0197 7.76111 10.3297 7.76111Z" fill="#071C25"/>
<path d="M18.1199 15.6119H2.52991C1.34991 15.6119 0.399902 14.6519 0.399902 13.4819V4.54187C0.399902 3.39187 1.30991 2.46187 2.43991 2.41187C2.56991 2.10187 2.87992 1.89191 3.22992 1.89191H4.7699C5.1199 1.89191 5.42991 2.10187 5.55991 2.41187H6.43991L6.75992 1.5719C7.01992 0.881899 7.68992 0.421875 8.41992 0.421875H12.2299C12.9699 0.421875 13.6399 0.881899 13.8899 1.5719L14.2099 2.41187H18.1199C19.2999 2.41187 20.2499 3.37187 20.2499 4.54187V13.4819C20.2499 14.6619 19.2899 15.6119 18.1199 15.6119ZM2.52991 3.54187C1.97991 3.54187 1.52991 3.99187 1.52991 4.54187V13.4819C1.52991 14.0319 1.97991 14.4819 2.52991 14.4819H18.1199C18.6699 14.4819 19.1199 14.0319 19.1199 13.4819V4.54187C19.1199 3.99187 18.6699 3.54187 18.1199 3.54187H13.8199C13.5799 3.54187 13.3699 3.39188 13.2899 3.17188L12.8399 1.96191C12.7499 1.71191 12.4999 1.54187 12.2399 1.54187H8.4299C8.1599 1.54187 7.9199 1.71191 7.8299 1.96191L7.37991 3.17188C7.29991 3.39188 7.08991 3.54187 6.84991 3.54187H5.0799C4.77989 3.54187 4.5399 3.31191 4.5199 3.02191H3.52991C3.50991 3.31191 3.25991 3.54187 2.96991 3.54187H2.55991H2.52991ZM10.3299 13.6819C7.7499 13.6819 5.65991 11.5919 5.65991 9.0119C5.65991 6.4319 7.7499 4.34192 10.3299 4.34192C12.9099 4.34192 14.9999 6.4319 14.9999 9.0119C14.9999 11.5919 12.9099 13.6819 10.3299 13.6819ZM10.3299 5.47186C8.3799 5.47186 6.78992 7.0619 6.78992 9.0119C6.78992 10.9619 8.3799 12.5519 10.3299 12.5519C12.2799 12.5519 13.8699 10.9619 13.8699 9.0119C13.8699 7.0619 12.2799 5.47186 10.3299 5.47186Z" fill="#071C25"/>
</svg>
