<svg width="25" height="23" viewBox="0 0 25 23" fill="none" xmlns="http://www.w3.org/2000/svg">
<path d="M18.4698 6.48907C18.3098 6.48907 18.1399 6.42907 18.0199 6.29907C17.7699 6.04907 17.7699 5.63906 18.0199 5.39906L22.8799 0.539062C23.1299 0.289062 23.5299 0.289062 23.7799 0.539062C24.0299 0.789062 24.0299 1.18907 23.7799 1.43907L21.1799 4.03906L18.9199 6.29907C18.7999 6.41907 18.6298 6.48907 18.4698 6.48907Z" fill="white"/>
<path d="M18.4698 6.49063C18.3098 6.49063 18.1398 6.43063 18.0198 6.30063C17.8998 6.17063 17.8298 6.01063 17.8298 5.85063C17.8298 5.69063 17.8898 5.52062 18.0198 5.40062L20.2798 3.14062C20.5298 2.89062 20.9298 2.89062 21.1798 3.14062C21.2998 3.26063 21.3698 3.43062 21.3698 3.59062C21.3698 3.75062 21.3098 3.92062 21.1798 4.04062L18.9198 6.30063C18.7998 6.42063 18.6298 6.49063 18.4698 6.49063Z" fill="white"/>
<path d="M2.53979 22.4187C2.37979 22.4187 2.20984 22.3587 2.08984 22.2287C1.83984 21.9787 1.83984 21.5688 2.08984 21.3288L6.94983 16.4688C7.19983 16.2188 7.59979 16.2188 7.84979 16.4688C7.96979 16.5888 8.02979 16.7488 8.03979 16.9088C8.03979 17.0788 7.97979 17.2488 7.84979 17.3788L2.98981 22.2388C2.86981 22.3588 2.69979 22.4287 2.53979 22.4287V22.4187Z" fill="white"/>
<path d="M5.49989 16.1875C5.35989 16.1875 5.20992 16.1375 5.08992 16.0375C2.64992 14.0275 1.11988 11.8375 1.04988 11.7475C0.899878 11.5275 0.899878 11.2375 1.04988 11.0175C1.26988 10.7075 6.39988 3.4375 12.9299 3.4375C14.0799 3.4375 15.2599 3.6675 16.4499 4.1275C16.7799 4.2575 16.9499 4.6275 16.8199 4.9575C16.6899 5.2875 16.3199 5.4575 15.9899 5.3275C14.9499 4.9275 13.9199 4.72749 12.9299 4.72749C7.85988 4.72749 3.47989 9.95749 2.36989 11.3975C2.89989 12.0875 4.16991 13.6375 5.89991 15.0675C6.16991 15.2875 6.20988 15.6975 5.98988 15.9675C5.85988 16.1175 5.67989 16.1975 5.49989 16.1975V16.1875Z" fill="white"/>
<path d="M12.9299 19.3323C11.7299 19.3323 10.4999 19.0823 9.24988 18.5823C8.91988 18.4523 8.75989 18.0823 8.88989 17.7523C9.01989 17.4223 9.38985 17.2623 9.71985 17.3923C10.8098 17.8323 11.8899 18.0523 12.9199 18.0523C17.9899 18.0523 22.3599 12.8223 23.4799 11.3823C22.9499 10.6923 21.6699 9.13228 19.9399 7.70228C19.6699 7.48228 19.6299 7.07229 19.8499 6.80229C20.0799 6.53229 20.4799 6.49229 20.7499 6.71229C23.1999 8.73229 24.7399 10.9223 24.7999 11.0123C24.9499 11.2323 24.9499 11.5223 24.7999 11.7423C24.5799 12.0523 19.4499 19.3223 12.9199 19.3223L12.9299 19.3323Z" fill="white"/>
<path d="M16.83 8.12768C16.67 8.12768 16.5099 8.06767 16.3799 7.94767C16.2499 7.81767 16.1899 7.65768 16.1899 7.48768C16.1899 7.31768 16.2499 7.16767 16.3699 7.03767C16.6199 6.78767 17.03 6.77768 17.28 7.01768C17.41 7.14768 17.4799 7.30767 17.4799 7.47767C17.4799 7.64767 17.4199 7.79767 17.2999 7.91767H17.2899C17.1599 8.05767 17 8.11767 16.83 8.11767V8.12768Z" fill="white"/>
<path d="M13.09 16.0403C12.57 16.0403 12.06 15.9604 11.57 15.8004C11.23 15.6904 11.0499 15.3304 11.1599 14.9904C11.2699 14.6604 11.6299 14.4704 11.9699 14.5804C12.3299 14.7004 12.7 14.7603 13.09 14.7603C15.04 14.7603 16.6199 13.1803 16.6199 11.2303C16.6199 10.8203 16.5499 10.4103 16.4099 10.0303C16.2899 9.70035 16.4599 9.33036 16.7899 9.21036C17.1199 9.09036 17.4899 9.26035 17.6099 9.59035C17.7999 10.1103 17.9 10.6603 17.9 11.2303C17.9 13.8803 15.74 16.0403 13.09 16.0403Z" fill="white"/>
<path d="M9.09985 13.0997C8.82985 13.0997 8.56987 12.9197 8.48987 12.6497C8.34987 12.1897 8.27991 11.7197 8.27991 11.2397C8.27991 8.5897 10.4399 6.42969 13.0899 6.42969C13.5299 6.42969 13.9599 6.4897 14.3799 6.6097C14.7199 6.6997 14.9199 7.05969 14.8199 7.39969C14.7299 7.73969 14.3699 7.93969 14.0299 7.83969C13.7199 7.74969 13.3999 7.7097 13.0799 7.7097C11.1299 7.7097 9.54987 9.2897 9.54987 11.2397C9.54987 11.5897 9.5999 11.9397 9.7099 12.2797C9.8099 12.6197 9.61986 12.9797 9.28986 13.0797C9.22986 13.0997 9.15985 13.1097 9.09985 13.1097V13.0997Z" fill="white"/>
<path d="M2.53979 22.4191C2.37979 22.4191 2.20984 22.3591 2.08984 22.2291C1.83984 21.9791 1.83984 21.5691 2.08984 21.3291L22.8798 0.539062C23.1298 0.289062 23.5298 0.289062 23.7798 0.539062C24.0298 0.789062 24.0298 1.19907 23.7798 1.43907L2.98981 22.2291C2.86981 22.3491 2.69979 22.4191 2.53979 22.4191Z" fill="white"/>
</svg>
