<svg width="187" height="61" viewBox="0 0 187 61" fill="none"
    xmlns="http://www.w3.org/2000/svg">
    <g className="corner">
        <path d="M176.22 1.16859V1.77859C176.22 2.11859 176.49 2.38859 176.83 2.38859H185.12V10.6786C185.12 11.0186 185.39 11.2886 185.73 11.2886H186.34C186.68 11.2886 186.95 11.0186 186.95 10.6786V0.558594H176.83C176.49 0.558594 176.22 0.828594 176.22 1.16859Z" fill="white"/>
        <path d="M1.13978 11.2886H1.74978C2.08978 11.2886 2.35979 11.0186 2.35979 10.6786V2.38859H10.6498C10.9898 2.38859 11.2598 2.11859 11.2598 1.77859V1.16859C11.2598 0.828594 10.9898 0.558594 10.6498 0.558594H0.529785V10.6786C0.529785 11.0186 0.799784 11.2886 1.13978 11.2886Z" fill="white"/>
        <path d="M11.2598 59.8583V59.2483C11.2598 58.9083 10.9898 58.6383 10.6498 58.6383H2.35979V50.3483C2.35979 50.0083 2.08978 49.7383 1.74978 49.7383H1.13978C0.799784 49.7383 0.529785 50.0083 0.529785 50.3483V60.4683H10.6498C10.9898 60.4683 11.2598 60.1983 11.2598 59.8583Z" fill="white"/>
        <path d="M186.34 49.7383H185.73C185.39 49.7383 185.12 50.0083 185.12 50.3483V58.6383H176.83C176.49 58.6383 176.22 58.9083 176.22 59.2483V59.8583C176.22 60.1983 176.49 60.4683 176.83 60.4683H186.95V50.3483C186.95 50.0083 186.68 49.7383 186.34 49.7383Z" fill="white"/>
    </g>

    <g className="text">
        <path d="M56.0999 36.7777C56.2199 36.6577 56.3799 36.5977 56.5799 36.5977H57.0799C57.2799 36.5977 57.4399 36.6577 57.5599 36.7777C57.6799 36.8977 57.7399 37.0577 57.7399 37.2577V45.5377C57.7399 48.9177 59.2099 50.6177 62.1599 50.6177C63.5899 50.6177 64.7199 50.1677 65.5599 49.2677C66.3999 48.3677 66.8199 47.1277 66.8199 45.5377V37.2577C66.8199 37.0577 66.8799 36.8977 66.9999 36.7777C67.1199 36.6577 67.2799 36.5977 67.4799 36.5977H67.9799C68.1799 36.5977 68.3399 36.6577 68.4599 36.7777C68.5799 36.8977 68.6399 37.0577 68.6399 37.2577V51.3877C68.6399 51.5877 68.5799 51.7477 68.4599 51.8677C68.3399 51.9877 68.1799 52.0477 67.9799 52.0477H67.4799C67.2799 52.0477 67.1199 51.9877 66.9999 51.8677C66.8799 51.7477 66.8199 51.5877 66.8199 51.3877V49.9877C66.2299 50.7577 65.5499 51.3477 64.7899 51.7377C64.0299 52.1377 63.0499 52.3277 61.8699 52.3277C59.9299 52.3277 58.4599 51.7177 57.4499 50.4877C56.4399 49.2577 55.9399 47.6577 55.9399 45.6777V37.2477C55.9399 37.0477 55.9999 36.8877 56.1199 36.7677L56.0999 36.7777Z" fill="white"/>
        <path d="M86.1102 51.8703C85.9902 51.9903 85.8302 52.0503 85.6402 52.0503H85.1402C84.9402 52.0503 84.7802 51.9903 84.6602 51.8703C84.5402 51.7503 84.4802 51.5903 84.4802 51.3903V43.1103C84.4802 41.5103 84.0902 40.2603 83.3102 39.3703C82.5302 38.4803 81.4002 38.0303 79.9402 38.0303C78.4802 38.0303 77.3802 38.4803 76.5302 39.3803C75.6802 40.2803 75.2502 41.5203 75.2502 43.1103V51.3903C75.2502 51.5903 75.1902 51.7503 75.0702 51.8703C74.9502 51.9903 74.7902 52.0503 74.5902 52.0503H74.0902C73.8902 52.0503 73.7302 51.9903 73.6102 51.8703C73.4902 51.7503 73.4302 51.5903 73.4302 51.3903V37.2603C73.4302 37.0603 73.4902 36.9003 73.6102 36.7803C73.7302 36.6603 73.8902 36.6003 74.0902 36.6003H74.5902C74.7902 36.6003 74.9502 36.6603 75.0702 36.7803C75.1902 36.9003 75.2502 37.0603 75.2502 37.2603V38.6603C75.8402 37.8903 76.5202 37.3003 77.2802 36.9103C78.0402 36.5103 79.0302 36.3203 80.2302 36.3203C82.1702 36.3203 83.6602 36.9403 84.7102 38.1803C85.7602 39.4203 86.2802 41.0203 86.2802 42.9703V51.4003C86.2802 51.6003 86.2202 51.7603 86.1002 51.8803L86.1102 51.8703Z" fill="white"/>
        <path d="M92.8899 33.2509C92.7599 33.3709 92.5999 33.4309 92.3999 33.4309H91.2699C91.0699 33.4309 90.9099 33.3709 90.7899 33.2509C90.6699 33.1309 90.6099 32.9709 90.6099 32.7709V31.6409C90.6099 31.4409 90.6699 31.2809 90.7899 31.1509C90.9099 31.0209 91.0699 30.9609 91.2699 30.9609H92.3999C92.5999 30.9609 92.7599 31.0209 92.8899 31.1509C93.0199 31.2809 93.0799 31.4409 93.0799 31.6409V32.7709C93.0799 32.9709 93.0199 33.1309 92.8899 33.2509ZM92.5799 51.8609C92.4599 51.9809 92.2999 52.0409 92.0999 52.0409H91.5999C91.3999 52.0409 91.2399 51.9809 91.1199 51.8609C90.9999 51.7409 90.9399 51.5809 90.9399 51.3809V37.2509C90.9399 37.0509 90.9999 36.8909 91.1199 36.7709C91.2399 36.6509 91.3999 36.5909 91.5999 36.5909H92.0999C92.2999 36.5909 92.4599 36.6509 92.5799 36.7709C92.6999 36.8909 92.7599 37.0509 92.7599 37.2509V51.3809C92.7599 51.5809 92.6999 51.7409 92.5799 51.8609Z" fill="white"/>
        <path d="M108.79 50.8609C109.05 51.1009 109.18 51.3009 109.18 51.4509C109.18 51.6309 109.13 51.7709 109.02 51.8809C108.91 51.9909 108.77 52.0409 108.59 52.0409H108.11C107.81 52.0409 107.6 52.0209 107.46 51.9709C107.32 51.9209 107.12 51.7809 106.87 51.5409L99.4201 44.9209V51.3909C99.4201 51.5909 99.3601 51.7509 99.2401 51.8709C99.1201 51.9909 98.9601 52.0509 98.7601 52.0509H98.2601C98.0601 52.0509 97.9001 51.9909 97.7801 51.8709C97.6601 51.7509 97.6001 51.5909 97.6001 51.3909V31.6209C97.6001 31.4209 97.6601 31.2609 97.7801 31.1409C97.9001 31.0209 98.0601 30.9609 98.2601 30.9609H98.7601C98.9601 30.9609 99.1201 31.0209 99.2401 31.1409C99.3601 31.2609 99.4201 31.4209 99.4201 31.6209V42.1309L106.04 37.1109C106.36 36.8709 106.57 36.7309 106.69 36.6809C106.81 36.6309 107.01 36.6109 107.28 36.6109H107.84C108.02 36.6109 108.16 36.6609 108.27 36.7709C108.38 36.8809 108.43 37.0209 108.43 37.2009C108.43 37.4209 108.3 37.6209 108.04 37.7909L100.53 43.4909L108.78 50.8509L108.79 50.8609Z" fill="white"/>
        <path d="M125.24 44.3192C125.24 44.6792 125.23 44.9492 125.21 45.1492C125.15 47.1492 124.61 48.8492 123.59 50.2392C122.57 51.6392 120.99 52.3292 118.85 52.3292C116.71 52.3292 115.01 51.5492 113.86 49.9792V51.3792C113.86 51.5792 113.8 51.7392 113.68 51.8592C113.56 51.9792 113.4 52.0392 113.2 52.0392H112.7C112.5 52.0392 112.34 51.9792 112.22 51.8592C112.1 51.7392 112.04 51.5792 112.04 51.3792V31.6092C112.04 31.4092 112.1 31.2492 112.22 31.1292C112.34 31.0092 112.5 30.9492 112.7 30.9492H113.2C113.4 30.9492 113.56 31.0092 113.68 31.1292C113.8 31.2492 113.86 31.4092 113.86 31.6092V38.6492C115.03 37.0892 116.69 36.2992 118.85 36.2992C121.01 36.2992 122.57 36.9992 123.59 38.3892C124.61 39.7892 125.15 41.4792 125.21 43.4792C125.23 43.6792 125.24 43.9592 125.24 44.3092V44.3192ZM122.2 49.0892C122.94 48.0692 123.34 46.7592 123.4 45.1592C123.42 44.9592 123.43 44.6792 123.43 44.3292C123.43 42.4892 123.07 40.9792 122.36 39.7992C121.65 38.6192 120.42 38.0292 118.68 38.0292C117.63 38.0292 116.75 38.2792 116.04 38.7692C115.33 39.2592 114.79 39.8892 114.44 40.6492C114.08 41.4092 113.9 42.2192 113.88 43.0692L113.85 44.2292L113.88 45.3892C113.94 46.7992 114.36 48.0192 115.16 49.0592C115.95 50.0992 117.13 50.6192 118.69 50.6192C120.25 50.6192 121.47 50.1092 122.21 49.0892H122.2Z" fill="white"/>
        <path d="M138.66 49.9908C138.22 50.6408 137.59 51.2008 136.75 51.6508C135.91 52.1008 134.8 52.3308 133.41 52.3308C132.46 52.3308 131.58 52.1308 130.77 51.7408C129.96 51.3408 129.31 50.8108 128.83 50.1408C128.34 49.4708 128.1 48.7308 128.1 47.9108C128.1 46.6008 128.63 45.5308 129.69 44.7008C130.75 43.8708 132.18 43.3308 133.98 43.1008L138.67 42.4508V41.4108C138.67 40.3208 138.34 39.4908 137.68 38.9008C137.02 38.3208 136 38.0208 134.64 38.0208C133.63 38.0208 132.8 38.2208 132.16 38.6108C131.52 39.0108 131.11 39.4808 130.93 40.0408C130.85 40.2808 130.76 40.4408 130.65 40.5308C130.54 40.6208 130.4 40.6608 130.22 40.6608H129.8C129.62 40.6608 129.47 40.6008 129.34 40.4708C129.21 40.3408 129.15 40.1908 129.15 40.0108C129.15 39.5808 129.35 39.0708 129.74 38.4808C130.14 37.9008 130.75 37.3908 131.58 36.9508C132.41 36.5108 133.43 36.3008 134.64 36.3008C136.76 36.3008 138.26 36.8008 139.15 37.8108C140.04 38.8208 140.49 40.0508 140.49 41.4908V51.3808C140.49 51.5808 140.43 51.7408 140.31 51.8608C140.19 51.9808 140.03 52.0408 139.83 52.0408H139.33C139.13 52.0408 138.97 51.9808 138.85 51.8608C138.73 51.7408 138.67 51.5808 138.67 51.3808V49.9808L138.66 49.9908ZM138.66 44.0808L134.83 44.6108C133.21 44.8308 131.98 45.2008 131.15 45.7408C130.32 46.2708 129.9 46.9508 129.9 47.7608C129.9 48.6708 130.28 49.3708 131.04 49.8708C131.8 50.3708 132.69 50.6108 133.7 50.6108C135.14 50.6108 136.33 50.1308 137.26 49.1808C138.19 48.2308 138.66 46.8608 138.66 45.0808V44.0708V44.0808Z" fill="white"/>
        <path d="M145.56 43.2603C144.92 42.5703 144.6 41.6903 144.6 40.6203C144.6 39.8903 144.8 39.2003 145.21 38.5403C145.62 37.8903 146.22 37.3503 147.02 36.9403C147.82 36.5303 148.79 36.3203 149.91 36.3203C151.1 36.3203 152.1 36.5203 152.92 36.9303C153.74 37.3403 154.35 37.8103 154.76 38.3403C155.17 38.8703 155.37 39.3103 155.37 39.6503C155.37 39.8303 155.31 39.9703 155.18 40.0803C155.05 40.1903 154.9 40.2403 154.72 40.2403H154.27C153.99 40.2403 153.78 40.1103 153.62 39.8503C153.22 39.2603 152.77 38.8103 152.27 38.5003C151.77 38.1903 150.98 38.0403 149.91 38.0403C148.76 38.0403 147.89 38.2803 147.3 38.7503C146.71 39.2303 146.41 39.8503 146.41 40.6203C146.41 41.1003 146.53 41.4903 146.77 41.8103C147.01 42.1303 147.45 42.4203 148.11 42.6903C148.76 42.9603 149.71 43.2303 150.96 43.5103C152.8 43.9303 154.1 44.4803 154.85 45.1703C155.6 45.8603 155.98 46.7803 155.98 47.9303C155.98 48.7403 155.75 49.4803 155.3 50.1603C154.84 50.8303 154.17 51.3703 153.28 51.7603C152.39 52.1603 151.32 52.3503 150.07 52.3503C148.82 52.3503 147.7 52.1303 146.82 51.7003C145.94 51.2703 145.28 50.7703 144.83 50.2203C144.38 49.6703 144.16 49.2203 144.16 48.8803C144.16 48.7003 144.23 48.5603 144.37 48.4503C144.51 48.3403 144.66 48.2903 144.82 48.2903H145.27C145.41 48.2903 145.52 48.3103 145.61 48.3603C145.7 48.4103 145.8 48.5103 145.92 48.6703C146.36 49.2803 146.89 49.7603 147.51 50.1103C148.13 50.4603 148.99 50.6303 150.08 50.6303C151.31 50.6303 152.3 50.4003 153.05 49.9303C153.8 49.4703 154.18 48.8003 154.18 47.9303C154.18 47.4003 154.03 46.9603 153.72 46.6203C153.41 46.2803 152.92 45.9903 152.24 45.7403C151.56 45.4903 150.54 45.2103 149.2 44.8903C147.44 44.4903 146.24 43.9503 145.59 43.2603H145.56Z" fill="white"/>
        <path d="M170.32 38.3603C171.48 39.7303 172.06 41.6003 172.06 43.9703V44.4203C172.06 44.6203 172 44.7803 171.87 44.9003C171.74 45.0203 171.58 45.0803 171.38 45.0803H160.81V45.3803C160.85 46.3103 161.06 47.1803 161.45 47.9803C161.84 48.7803 162.38 49.4303 163.07 49.9103C163.76 50.4003 164.57 50.6403 165.5 50.6403C166.59 50.6403 167.47 50.4303 168.16 50.0003C168.84 49.5703 169.33 49.1403 169.63 48.7103C169.81 48.4703 169.94 48.3203 170.03 48.2603C170.12 48.2003 170.28 48.1703 170.52 48.1703H171C171.18 48.1703 171.33 48.2203 171.45 48.3203C171.57 48.4203 171.63 48.5503 171.63 48.7103C171.63 49.1303 171.37 49.6303 170.84 50.2103C170.32 50.7903 169.59 51.3003 168.66 51.7203C167.73 52.1503 166.68 52.3603 165.51 52.3603C163.63 52.3603 162.12 51.7403 160.97 50.5003C159.82 49.2603 159.17 47.6103 159.01 45.5303L158.98 44.3403L159.01 43.1503C159.17 41.0903 159.82 39.4403 160.95 38.1903C162.09 36.9403 163.61 36.3203 165.51 36.3203C167.57 36.3203 169.18 37.0003 170.33 38.3703L170.32 38.3603ZM170.25 43.4103V43.2903C170.25 41.7703 169.82 40.5103 168.96 39.5203C168.1 38.5303 166.95 38.0403 165.5 38.0403C164.05 38.0403 162.91 38.5303 162.07 39.5203C161.23 40.5103 160.81 41.7703 160.81 43.2903V43.4103H170.25Z" fill="white"/>
    </g>
    <path d="M26.0801 52.2986C19.3301 52.0986 14.0601 46.3786 14.0601 39.6286V18.6586C14.0601 18.5086 14.1201 18.3586 14.2201 18.2486L22.8201 8.92862C23.2001 8.51862 23.8701 8.78862 23.8701 9.33862V30.9786C23.8701 36.7986 28.4601 41.7186 34.2801 41.8086C35.1801 41.8186 36.0601 41.7286 36.9101 41.5286C36.9901 40.9986 37.0301 40.4586 37.0301 39.9086V19.3786C37.0301 19.0386 37.3001 18.7686 37.6401 18.7686H38.2301C38.5701 18.7686 38.8401 19.0386 38.8401 19.3786V39.9086C38.8401 40.2386 38.8301 40.5586 38.8001 40.8786C42.4801 39.2186 45.0401 35.5186 45.0401 31.2286V10.6986C45.0401 10.3586 45.3101 10.0886 45.6501 10.0886H46.2401C46.5801 10.0886 46.8501 10.3586 46.8501 10.6986V31.2286C46.8501 36.6586 43.3301 41.2886 38.4601 42.9586C37.0701 48.4386 32.0201 52.4686 26.0701 52.2986H26.0801ZM15.8701 19.1286V39.9086C15.8701 45.7486 20.6201 50.4986 26.4601 50.4986C31.0501 50.4986 34.9601 47.5686 36.4301 43.4786C35.7901 43.5786 35.1401 43.6286 34.4701 43.6286C27.6401 43.6286 22.0801 38.0686 22.0801 31.2386V12.4186L15.8801 19.1386L15.8701 19.1286Z" fill="white"/>
</svg>