<svg width="20" height="20" viewBox="0 0 20 20" fill="none" xmlns="http://www.w3.org/2000/svg">
<path d="M6.6665 1.66663V4.16663" stroke="#FF5D2D" stroke-width="1.5" stroke-miterlimit="10" stroke-linecap="round" stroke-linejoin="round"/>
<path d="M13.3335 1.66663V4.16663" stroke="#FF5D2D" stroke-width="1.5" stroke-miterlimit="10" stroke-linecap="round" stroke-linejoin="round"/>
<path d="M17.5 7.08329V11.3583C16.7583 10.7666 15.8167 10.4166 14.7917 10.4166C13.7667 10.4166 12.8083 10.7749 12.0583 11.3833C11.05 12.1749 10.4167 13.4166 10.4167 14.7916C10.4167 15.6083 10.65 16.3916 11.05 17.0416C11.3583 17.55 11.7583 17.9916 12.2333 18.3333H6.66667C3.75 18.3333 2.5 16.6666 2.5 14.1666V7.08329C2.5 4.58329 3.75 2.91663 6.66667 2.91663H13.3333C16.25 2.91663 17.5 4.58329 17.5 7.08329Z" stroke="#FF5D2D" stroke-width="1.5" stroke-miterlimit="10" stroke-linecap="round" stroke-linejoin="round"/>
<path d="M5.8335 9.16663H10.8335" stroke="#FF5D2D" stroke-width="1.5" stroke-miterlimit="10" stroke-linecap="round" stroke-linejoin="round"/>
<path d="M5.8335 13.3334H8.01683" stroke="#FF5D2D" stroke-width="1.5" stroke-miterlimit="10" stroke-linecap="round" stroke-linejoin="round"/>
<path d="M19.1665 14.7916C19.1665 15.6083 18.9332 16.3916 18.5332 17.0416C18.2998 17.4416 18.0082 17.7916 17.6665 18.075C16.8998 18.7583 15.8998 19.1666 14.7915 19.1666C13.8332 19.1666 12.9498 18.8583 12.2332 18.3333C11.7582 17.9916 11.3582 17.55 11.0498 17.0416C10.6498 16.3916 10.4165 15.6083 10.4165 14.7916C10.4165 13.4166 11.0498 12.1749 12.0582 11.3833C12.8082 10.7749 13.7665 10.4166 14.7915 10.4166C15.8165 10.4166 16.7582 10.7666 17.4998 11.3583C18.5165 12.1583 19.1665 13.4 19.1665 14.7916Z" stroke="#FF5D2D" stroke-width="1.5" stroke-miterlimit="10" stroke-linecap="round" stroke-linejoin="round"/>
<path d="M14.7918 16.875C14.7918 15.725 15.7252 14.7917 16.8752 14.7917C15.7252 14.7917 14.7918 13.8584 14.7918 12.7084C14.7918 13.8584 13.8585 14.7917 12.7085 14.7917C13.8585 14.7917 14.7918 15.725 14.7918 16.875Z" stroke="#FF5D2D" stroke-width="1.5" stroke-linecap="round" stroke-linejoin="round"/>
</svg>
