<svg width="24" height="24" viewBox="0 0 24 24" fill="none" xmlns="http://www.w3.org/2000/svg">
<path d="M18 18.86H17.24C16.44 18.86 15.68 19.17 15.12 19.73L13.41 21.42C12.63 22.19 11.36 22.19 10.58 21.42L8.87 19.73C8.31 19.17 7.54 18.86 6.75 18.86H6C4.34 18.86 3 17.53 3 15.89V4.97998C3 3.33998 4.34 2.01001 6 2.01001H18C19.66 2.01001 21 3.33998 21 4.97998V15.89C21 17.52 19.66 18.86 18 18.86Z" stroke="#8A9FA7" stroke-width="1.5" stroke-miterlimit="10" stroke-linecap="round" stroke-linejoin="round"/>
<path d="M7 9.15979C7 8.22979 7.76 7.46973 8.69 7.46973C9.62 7.46973 10.38 8.22979 10.38 9.15979C10.38 11.0398 7.71 11.2398 7.12 13.0298C7 13.3998 7.31 13.7698 7.7 13.7698H10.38" stroke="#8A9FA7" stroke-width="1.5" stroke-linecap="round" stroke-linejoin="round"/>
<path d="M16.04 13.7599V8.04991C16.04 7.78991 15.87 7.55985 15.62 7.48985C15.37 7.41985 15.1 7.51985 14.96 7.73985C14.24 8.89985 13.46 10.2199 12.78 11.3799C12.67 11.5699 12.67 11.8199 12.78 12.0099C12.89 12.1999 13.1 12.3198 13.33 12.3198H17" stroke="#8A9FA7" stroke-width="1.5" stroke-linecap="round" stroke-linejoin="round"/>
</svg>
